<?xml version="1.0" encoding="utf-8"?>
<svg xmlns="http://www.w3.org/2000/svg" xmlns:xlink="http://www.w3.org/1999/xlink" xml:space="preserve" width="888" height="888" viewBox="0 0 888 888"><defs><radialGradient id="pattern-mask" cx="50%" cy="50%" r="50%" fx="50%" fy="50%" gradientUnits="userSpaceOnUse"><stop offset="0%" stop-color="#9d00ff"/><stop offset="100%" stop-color="#ff038a"/></radialGradient>
<mask id="qrmask"><g fill="#ffffff"><g>
<g transform="translate(240,48) scale(4.12)"><path d="M3,0L3,0c0,1.7-1.3,3-3,3h0h0c1.7,0,3,1.3,3,3v0v0c0-1.7,1.3-3,3-3h0h0C4.3,3,3,1.7,3,0L3,0z"/></g>
<g transform="translate(312,48) scale(4.12)"><path d="M3,0L3,0c0,1.7-1.3,3-3,3h0h0c1.7,0,3,1.3,3,3v0v0c0-1.7,1.3-3,3-3h0h0C4.3,3,3,1.7,3,0L3,0z"/></g>
<g transform="translate(408,48) scale(4.12)"><path d="M3,0L3,0c0,1.7-1.3,3-3,3h0h0c1.7,0,3,1.3,3,3v0v0c0-1.7,1.3-3,3-3h0h0C4.3,3,3,1.7,3,0L3,0z"/></g>
<g transform="translate(432,48) scale(4.12)"><path d="M3,0L3,0c0,1.7-1.3,3-3,3h0h0c1.7,0,3,1.3,3,3v0v0c0-1.7,1.3-3,3-3h0h0C4.3,3,3,1.7,3,0L3,0z"/></g>
<g transform="translate(456,48) scale(4.12)"><path d="M3,0L3,0c0,1.7-1.3,3-3,3h0h0c1.7,0,3,1.3,3,3v0v0c0-1.7,1.3-3,3-3h0h0C4.3,3,3,1.7,3,0L3,0z"/></g>
<g transform="translate(480,48) scale(4.12)"><path d="M3,0L3,0c0,1.7-1.3,3-3,3h0h0c1.7,0,3,1.3,3,3v0v0c0-1.7,1.3-3,3-3h0h0C4.3,3,3,1.7,3,0L3,0z"/></g>
<g transform="translate(504,48) scale(4.12)"><path d="M3,0L3,0c0,1.7-1.3,3-3,3h0h0c1.7,0,3,1.3,3,3v0v0c0-1.7,1.3-3,3-3h0h0C4.3,3,3,1.7,3,0L3,0z"/></g>
<g transform="translate(552,48) scale(4.12)"><path d="M3,0L3,0c0,1.7-1.3,3-3,3h0h0c1.7,0,3,1.3,3,3v0v0c0-1.7,1.3-3,3-3h0h0C4.3,3,3,1.7,3,0L3,0z"/></g>
<g transform="translate(576,48) scale(4.12)"><path d="M3,0L3,0c0,1.7-1.3,3-3,3h0h0c1.7,0,3,1.3,3,3v0v0c0-1.7,1.3-3,3-3h0h0C4.3,3,3,1.7,3,0L3,0z"/></g>
<g transform="translate(600,48) scale(4.12)"><path d="M3,0L3,0c0,1.7-1.3,3-3,3h0h0c1.7,0,3,1.3,3,3v0v0c0-1.7,1.3-3,3-3h0h0C4.3,3,3,1.7,3,0L3,0z"/></g>
<g transform="translate(264,72) scale(4.12)"><path d="M3,0L3,0c0,1.7-1.3,3-3,3h0h0c1.7,0,3,1.3,3,3v0v0c0-1.7,1.3-3,3-3h0h0C4.3,3,3,1.7,3,0L3,0z"/></g>
<g transform="translate(360,72) scale(4.12)"><path d="M3,0L3,0c0,1.7-1.3,3-3,3h0h0c1.7,0,3,1.3,3,3v0v0c0-1.7,1.3-3,3-3h0h0C4.3,3,3,1.7,3,0L3,0z"/></g>
<g transform="translate(456,72) scale(4.12)"><path d="M3,0L3,0c0,1.7-1.3,3-3,3h0h0c1.7,0,3,1.3,3,3v0v0c0-1.7,1.3-3,3-3h0h0C4.3,3,3,1.7,3,0L3,0z"/></g>
<g transform="translate(264,96) scale(4.12)"><path d="M3,0L3,0c0,1.7-1.3,3-3,3h0h0c1.7,0,3,1.3,3,3v0v0c0-1.7,1.3-3,3-3h0h0C4.3,3,3,1.7,3,0L3,0z"/></g>
<g transform="translate(408,96) scale(4.12)"><path d="M3,0L3,0c0,1.7-1.3,3-3,3h0h0c1.7,0,3,1.3,3,3v0v0c0-1.7,1.3-3,3-3h0h0C4.3,3,3,1.7,3,0L3,0z"/></g>
<g transform="translate(432,96) scale(4.12)"><path d="M3,0L3,0c0,1.7-1.3,3-3,3h0h0c1.7,0,3,1.3,3,3v0v0c0-1.7,1.3-3,3-3h0h0C4.3,3,3,1.7,3,0L3,0z"/></g>
<g transform="translate(456,96) scale(4.12)"><path d="M3,0L3,0c0,1.7-1.3,3-3,3h0h0c1.7,0,3,1.3,3,3v0v0c0-1.7,1.3-3,3-3h0h0C4.3,3,3,1.7,3,0L3,0z"/></g>
<g transform="translate(480,96) scale(4.12)"><path d="M3,0L3,0c0,1.7-1.3,3-3,3h0h0c1.7,0,3,1.3,3,3v0v0c0-1.7,1.3-3,3-3h0h0C4.3,3,3,1.7,3,0L3,0z"/></g>
<g transform="translate(504,96) scale(4.12)"><path d="M3,0L3,0c0,1.7-1.3,3-3,3h0h0c1.7,0,3,1.3,3,3v0v0c0-1.7,1.3-3,3-3h0h0C4.3,3,3,1.7,3,0L3,0z"/></g>
<g transform="translate(552,96) scale(4.12)"><path d="M3,0L3,0c0,1.7-1.3,3-3,3h0h0c1.7,0,3,1.3,3,3v0v0c0-1.7,1.3-3,3-3h0h0C4.3,3,3,1.7,3,0L3,0z"/></g>
<g transform="translate(264,120) scale(4.12)"><path d="M3,0L3,0c0,1.7-1.3,3-3,3h0h0c1.7,0,3,1.3,3,3v0v0c0-1.7,1.3-3,3-3h0h0C4.3,3,3,1.7,3,0L3,0z"/></g>
<g transform="translate(288,120) scale(4.12)"><path d="M3,0L3,0c0,1.7-1.3,3-3,3h0h0c1.7,0,3,1.3,3,3v0v0c0-1.7,1.3-3,3-3h0h0C4.3,3,3,1.7,3,0L3,0z"/></g>
<g transform="translate(408,120) scale(4.12)"><path d="M3,0L3,0c0,1.7-1.3,3-3,3h0h0c1.7,0,3,1.3,3,3v0v0c0-1.7,1.3-3,3-3h0h0C4.3,3,3,1.7,3,0L3,0z"/></g>
<g transform="translate(528,120) scale(4.12)"><path d="M3,0L3,0c0,1.7-1.3,3-3,3h0h0c1.7,0,3,1.3,3,3v0v0c0-1.7,1.3-3,3-3h0h0C4.3,3,3,1.7,3,0L3,0z"/></g>
<g transform="translate(576,120) scale(4.12)"><path d="M3,0L3,0c0,1.7-1.3,3-3,3h0h0c1.7,0,3,1.3,3,3v0v0c0-1.7,1.3-3,3-3h0h0C4.3,3,3,1.7,3,0L3,0z"/></g>
<g transform="translate(240,144) scale(4.12)"><path d="M3,0L3,0c0,1.7-1.3,3-3,3h0h0c1.7,0,3,1.3,3,3v0v0c0-1.7,1.3-3,3-3h0h0C4.3,3,3,1.7,3,0L3,0z"/></g>
<g transform="translate(288,144) scale(4.12)"><path d="M3,0L3,0c0,1.7-1.3,3-3,3h0h0c1.7,0,3,1.3,3,3v0v0c0-1.7,1.3-3,3-3h0h0C4.3,3,3,1.7,3,0L3,0z"/></g>
<g transform="translate(384,144) scale(4.12)"><path d="M3,0L3,0c0,1.7-1.3,3-3,3h0h0c1.7,0,3,1.3,3,3v0v0c0-1.7,1.3-3,3-3h0h0C4.3,3,3,1.7,3,0L3,0z"/></g>
<g transform="translate(408,144) scale(4.12)"><path d="M3,0L3,0c0,1.7-1.3,3-3,3h0h0c1.7,0,3,1.3,3,3v0v0c0-1.7,1.3-3,3-3h0h0C4.3,3,3,1.7,3,0L3,0z"/></g>
<g transform="translate(456,144) scale(4.12)"><path d="M3,0L3,0c0,1.7-1.3,3-3,3h0h0c1.7,0,3,1.3,3,3v0v0c0-1.7,1.3-3,3-3h0h0C4.3,3,3,1.7,3,0L3,0z"/></g>
<g transform="translate(480,144) scale(4.12)"><path d="M3,0L3,0c0,1.7-1.3,3-3,3h0h0c1.7,0,3,1.3,3,3v0v0c0-1.7,1.3-3,3-3h0h0C4.3,3,3,1.7,3,0L3,0z"/></g>
<g transform="translate(552,144) scale(4.12)"><path d="M3,0L3,0c0,1.7-1.3,3-3,3h0h0c1.7,0,3,1.3,3,3v0v0c0-1.7,1.3-3,3-3h0h0C4.3,3,3,1.7,3,0L3,0z"/></g>
<g transform="translate(600,144) scale(4.12)"><path d="M3,0L3,0c0,1.7-1.3,3-3,3h0h0c1.7,0,3,1.3,3,3v0v0c0-1.7,1.3-3,3-3h0h0C4.3,3,3,1.7,3,0L3,0z"/></g>
<g transform="translate(240,168) scale(4.12)"><path d="M3,0L3,0c0,1.7-1.3,3-3,3h0h0c1.7,0,3,1.3,3,3v0v0c0-1.7,1.3-3,3-3h0h0C4.3,3,3,1.7,3,0L3,0z"/></g>
<g transform="translate(288,168) scale(4.12)"><path d="M3,0L3,0c0,1.7-1.3,3-3,3h0h0c1.7,0,3,1.3,3,3v0v0c0-1.7,1.3-3,3-3h0h0C4.3,3,3,1.7,3,0L3,0z"/></g>
<g transform="translate(312,168) scale(4.12)"><path d="M3,0L3,0c0,1.7-1.3,3-3,3h0h0c1.7,0,3,1.3,3,3v0v0c0-1.7,1.3-3,3-3h0h0C4.3,3,3,1.7,3,0L3,0z"/></g>
<g transform="translate(336,168) scale(4.12)"><path d="M3,0L3,0c0,1.7-1.3,3-3,3h0h0c1.7,0,3,1.3,3,3v0v0c0-1.7,1.3-3,3-3h0h0C4.3,3,3,1.7,3,0L3,0z"/></g>
<g transform="translate(384,168) scale(4.12)"><path d="M3,0L3,0c0,1.7-1.3,3-3,3h0h0c1.7,0,3,1.3,3,3v0v0c0-1.7,1.3-3,3-3h0h0C4.3,3,3,1.7,3,0L3,0z"/></g>
<g transform="translate(408,168) scale(4.12)"><path d="M3,0L3,0c0,1.7-1.3,3-3,3h0h0c1.7,0,3,1.3,3,3v0v0c0-1.7,1.3-3,3-3h0h0C4.3,3,3,1.7,3,0L3,0z"/></g>
<g transform="translate(432,168) scale(4.12)"><path d="M3,0L3,0c0,1.7-1.3,3-3,3h0h0c1.7,0,3,1.3,3,3v0v0c0-1.7,1.3-3,3-3h0h0C4.3,3,3,1.7,3,0L3,0z"/></g>
<g transform="translate(456,168) scale(4.12)"><path d="M3,0L3,0c0,1.7-1.3,3-3,3h0h0c1.7,0,3,1.3,3,3v0v0c0-1.7,1.3-3,3-3h0h0C4.3,3,3,1.7,3,0L3,0z"/></g>
<g transform="translate(528,168) scale(4.12)"><path d="M3,0L3,0c0,1.7-1.3,3-3,3h0h0c1.7,0,3,1.3,3,3v0v0c0-1.7,1.3-3,3-3h0h0C4.3,3,3,1.7,3,0L3,0z"/></g>
<g transform="translate(552,168) scale(4.12)"><path d="M3,0L3,0c0,1.7-1.3,3-3,3h0h0c1.7,0,3,1.3,3,3v0v0c0-1.7,1.3-3,3-3h0h0C4.3,3,3,1.7,3,0L3,0z"/></g>
<g transform="translate(576,168) scale(4.12)"><path d="M3,0L3,0c0,1.7-1.3,3-3,3h0h0c1.7,0,3,1.3,3,3v0v0c0-1.7,1.3-3,3-3h0h0C4.3,3,3,1.7,3,0L3,0z"/></g>
<g transform="translate(624,168) scale(4.12)"><path d="M3,0L3,0c0,1.7-1.3,3-3,3h0h0c1.7,0,3,1.3,3,3v0v0c0-1.7,1.3-3,3-3h0h0C4.3,3,3,1.7,3,0L3,0z"/></g>
<g transform="translate(240,192) scale(4.12)"><path d="M3,0L3,0c0,1.7-1.3,3-3,3h0h0c1.7,0,3,1.3,3,3v0v0c0-1.7,1.3-3,3-3h0h0C4.3,3,3,1.7,3,0L3,0z"/></g>
<g transform="translate(288,192) scale(4.12)"><path d="M3,0L3,0c0,1.7-1.3,3-3,3h0h0c1.7,0,3,1.3,3,3v0v0c0-1.7,1.3-3,3-3h0h0C4.3,3,3,1.7,3,0L3,0z"/></g>
<g transform="translate(336,192) scale(4.12)"><path d="M3,0L3,0c0,1.7-1.3,3-3,3h0h0c1.7,0,3,1.3,3,3v0v0c0-1.7,1.3-3,3-3h0h0C4.3,3,3,1.7,3,0L3,0z"/></g>
<g transform="translate(384,192) scale(4.12)"><path d="M3,0L3,0c0,1.7-1.3,3-3,3h0h0c1.7,0,3,1.3,3,3v0v0c0-1.7,1.3-3,3-3h0h0C4.3,3,3,1.7,3,0L3,0z"/></g>
<g transform="translate(432,192) scale(4.12)"><path d="M3,0L3,0c0,1.7-1.3,3-3,3h0h0c1.7,0,3,1.3,3,3v0v0c0-1.7,1.3-3,3-3h0h0C4.3,3,3,1.7,3,0L3,0z"/></g>
<g transform="translate(480,192) scale(4.12)"><path d="M3,0L3,0c0,1.7-1.3,3-3,3h0h0c1.7,0,3,1.3,3,3v0v0c0-1.7,1.3-3,3-3h0h0C4.3,3,3,1.7,3,0L3,0z"/></g>
<g transform="translate(528,192) scale(4.12)"><path d="M3,0L3,0c0,1.7-1.3,3-3,3h0h0c1.7,0,3,1.3,3,3v0v0c0-1.7,1.3-3,3-3h0h0C4.3,3,3,1.7,3,0L3,0z"/></g>
<g transform="translate(576,192) scale(4.12)"><path d="M3,0L3,0c0,1.7-1.3,3-3,3h0h0c1.7,0,3,1.3,3,3v0v0c0-1.7,1.3-3,3-3h0h0C4.3,3,3,1.7,3,0L3,0z"/></g>
<g transform="translate(624,192) scale(4.12)"><path d="M3,0L3,0c0,1.7-1.3,3-3,3h0h0c1.7,0,3,1.3,3,3v0v0c0-1.7,1.3-3,3-3h0h0C4.3,3,3,1.7,3,0L3,0z"/></g>
<g transform="translate(312,216) scale(4.12)"><path d="M3,0L3,0c0,1.7-1.3,3-3,3h0h0c1.7,0,3,1.3,3,3v0v0c0-1.7,1.3-3,3-3h0h0C4.3,3,3,1.7,3,0L3,0z"/></g>
<g transform="translate(360,216) scale(4.12)"><path d="M3,0L3,0c0,1.7-1.3,3-3,3h0h0c1.7,0,3,1.3,3,3v0v0c0-1.7,1.3-3,3-3h0h0C4.3,3,3,1.7,3,0L3,0z"/></g>
<g transform="translate(384,216) scale(4.12)"><path d="M3,0L3,0c0,1.7-1.3,3-3,3h0h0c1.7,0,3,1.3,3,3v0v0c0-1.7,1.3-3,3-3h0h0C4.3,3,3,1.7,3,0L3,0z"/></g>
<g transform="translate(408,216) scale(4.12)"><path d="M3,0L3,0c0,1.7-1.3,3-3,3h0h0c1.7,0,3,1.3,3,3v0v0c0-1.7,1.3-3,3-3h0h0C4.3,3,3,1.7,3,0L3,0z"/></g>
<g transform="translate(480,216) scale(4.12)"><path d="M3,0L3,0c0,1.7-1.3,3-3,3h0h0c1.7,0,3,1.3,3,3v0v0c0-1.7,1.3-3,3-3h0h0C4.3,3,3,1.7,3,0L3,0z"/></g>
<g transform="translate(552,216) scale(4.12)"><path d="M3,0L3,0c0,1.7-1.3,3-3,3h0h0c1.7,0,3,1.3,3,3v0v0c0-1.7,1.3-3,3-3h0h0C4.3,3,3,1.7,3,0L3,0z"/></g>
<g transform="translate(576,216) scale(4.12)"><path d="M3,0L3,0c0,1.7-1.3,3-3,3h0h0c1.7,0,3,1.3,3,3v0v0c0-1.7,1.3-3,3-3h0h0C4.3,3,3,1.7,3,0L3,0z"/></g>
<g transform="translate(72,240) scale(4.12)"><path d="M3,0L3,0c0,1.7-1.3,3-3,3h0h0c1.7,0,3,1.3,3,3v0v0c0-1.7,1.3-3,3-3h0h0C4.3,3,3,1.7,3,0L3,0z"/></g>
<g transform="translate(96,240) scale(4.12)"><path d="M3,0L3,0c0,1.7-1.3,3-3,3h0h0c1.7,0,3,1.3,3,3v0v0c0-1.7,1.3-3,3-3h0h0C4.3,3,3,1.7,3,0L3,0z"/></g>
<g transform="translate(120,240) scale(4.12)"><path d="M3,0L3,0c0,1.7-1.3,3-3,3h0h0c1.7,0,3,1.3,3,3v0v0c0-1.7,1.3-3,3-3h0h0C4.3,3,3,1.7,3,0L3,0z"/></g>
<g transform="translate(144,240) scale(4.12)"><path d="M3,0L3,0c0,1.7-1.3,3-3,3h0h0c1.7,0,3,1.3,3,3v0v0c0-1.7,1.3-3,3-3h0h0C4.3,3,3,1.7,3,0L3,0z"/></g>
<g transform="translate(168,240) scale(4.12)"><path d="M3,0L3,0c0,1.7-1.3,3-3,3h0h0c1.7,0,3,1.3,3,3v0v0c0-1.7,1.3-3,3-3h0h0C4.3,3,3,1.7,3,0L3,0z"/></g>
<g transform="translate(192,240) scale(4.12)"><path d="M3,0L3,0c0,1.7-1.3,3-3,3h0h0c1.7,0,3,1.3,3,3v0v0c0-1.7,1.3-3,3-3h0h0C4.3,3,3,1.7,3,0L3,0z"/></g>
<g transform="translate(216,240) scale(4.12)"><path d="M3,0L3,0c0,1.7-1.3,3-3,3h0h0c1.7,0,3,1.3,3,3v0v0c0-1.7,1.3-3,3-3h0h0C4.3,3,3,1.7,3,0L3,0z"/></g>
<g transform="translate(312,240) scale(4.12)"><path d="M3,0L3,0c0,1.7-1.3,3-3,3h0h0c1.7,0,3,1.3,3,3v0v0c0-1.7,1.3-3,3-3h0h0C4.3,3,3,1.7,3,0L3,0z"/></g>
<g transform="translate(384,240) scale(4.12)"><path d="M3,0L3,0c0,1.7-1.3,3-3,3h0h0c1.7,0,3,1.3,3,3v0v0c0-1.7,1.3-3,3-3h0h0C4.3,3,3,1.7,3,0L3,0z"/></g>
<g transform="translate(408,240) scale(4.12)"><path d="M3,0L3,0c0,1.7-1.3,3-3,3h0h0c1.7,0,3,1.3,3,3v0v0c0-1.7,1.3-3,3-3h0h0C4.3,3,3,1.7,3,0L3,0z"/></g>
<g transform="translate(432,240) scale(4.12)"><path d="M3,0L3,0c0,1.7-1.3,3-3,3h0h0c1.7,0,3,1.3,3,3v0v0c0-1.7,1.3-3,3-3h0h0C4.3,3,3,1.7,3,0L3,0z"/></g>
<g transform="translate(456,240) scale(4.12)"><path d="M3,0L3,0c0,1.7-1.3,3-3,3h0h0c1.7,0,3,1.3,3,3v0v0c0-1.7,1.3-3,3-3h0h0C4.3,3,3,1.7,3,0L3,0z"/></g>
<g transform="translate(696,240) scale(4.12)"><path d="M3,0L3,0c0,1.7-1.3,3-3,3h0h0c1.7,0,3,1.3,3,3v0v0c0-1.7,1.3-3,3-3h0h0C4.3,3,3,1.7,3,0L3,0z"/></g>
<g transform="translate(720,240) scale(4.12)"><path d="M3,0L3,0c0,1.7-1.3,3-3,3h0h0c1.7,0,3,1.3,3,3v0v0c0-1.7,1.3-3,3-3h0h0C4.3,3,3,1.7,3,0L3,0z"/></g>
<g transform="translate(816,240) scale(4.12)"><path d="M3,0L3,0c0,1.7-1.3,3-3,3h0h0c1.7,0,3,1.3,3,3v0v0c0-1.7,1.3-3,3-3h0h0C4.3,3,3,1.7,3,0L3,0z"/></g>
<g transform="translate(48,264) scale(4.12)"><path d="M3,0L3,0c0,1.7-1.3,3-3,3h0h0c1.7,0,3,1.3,3,3v0v0c0-1.7,1.3-3,3-3h0h0C4.3,3,3,1.7,3,0L3,0z"/></g>
<g transform="translate(72,264) scale(4.12)"><path d="M3,0L3,0c0,1.7-1.3,3-3,3h0h0c1.7,0,3,1.3,3,3v0v0c0-1.7,1.3-3,3-3h0h0C4.3,3,3,1.7,3,0L3,0z"/></g>
<g transform="translate(96,264) scale(4.12)"><path d="M3,0L3,0c0,1.7-1.3,3-3,3h0h0c1.7,0,3,1.3,3,3v0v0c0-1.7,1.3-3,3-3h0h0C4.3,3,3,1.7,3,0L3,0z"/></g>
<g transform="translate(120,264) scale(4.12)"><path d="M3,0L3,0c0,1.7-1.3,3-3,3h0h0c1.7,0,3,1.3,3,3v0v0c0-1.7,1.3-3,3-3h0h0C4.3,3,3,1.7,3,0L3,0z"/></g>
<g transform="translate(144,264) scale(4.12)"><path d="M3,0L3,0c0,1.7-1.3,3-3,3h0h0c1.7,0,3,1.3,3,3v0v0c0-1.7,1.3-3,3-3h0h0C4.3,3,3,1.7,3,0L3,0z"/></g>
<g transform="translate(168,264) scale(4.12)"><path d="M3,0L3,0c0,1.7-1.3,3-3,3h0h0c1.7,0,3,1.3,3,3v0v0c0-1.7,1.3-3,3-3h0h0C4.3,3,3,1.7,3,0L3,0z"/></g>
<g transform="translate(288,264) scale(4.12)"><path d="M3,0L3,0c0,1.7-1.3,3-3,3h0h0c1.7,0,3,1.3,3,3v0v0c0-1.7,1.3-3,3-3h0h0C4.3,3,3,1.7,3,0L3,0z"/></g>
<g transform="translate(312,264) scale(4.12)"><path d="M3,0L3,0c0,1.7-1.3,3-3,3h0h0c1.7,0,3,1.3,3,3v0v0c0-1.7,1.3-3,3-3h0h0C4.3,3,3,1.7,3,0L3,0z"/></g>
<g transform="translate(336,264) scale(4.12)"><path d="M3,0L3,0c0,1.7-1.3,3-3,3h0h0c1.7,0,3,1.3,3,3v0v0c0-1.7,1.3-3,3-3h0h0C4.3,3,3,1.7,3,0L3,0z"/></g>
<g transform="translate(384,264) scale(4.12)"><path d="M3,0L3,0c0,1.7-1.3,3-3,3h0h0c1.7,0,3,1.3,3,3v0v0c0-1.7,1.3-3,3-3h0h0C4.3,3,3,1.7,3,0L3,0z"/></g>
<g transform="translate(408,264) scale(4.12)"><path d="M3,0L3,0c0,1.7-1.3,3-3,3h0h0c1.7,0,3,1.3,3,3v0v0c0-1.7,1.3-3,3-3h0h0C4.3,3,3,1.7,3,0L3,0z"/></g>
<g transform="translate(480,264) scale(4.12)"><path d="M3,0L3,0c0,1.7-1.3,3-3,3h0h0c1.7,0,3,1.3,3,3v0v0c0-1.7,1.3-3,3-3h0h0C4.3,3,3,1.7,3,0L3,0z"/></g>
<g transform="translate(504,264) scale(4.12)"><path d="M3,0L3,0c0,1.7-1.3,3-3,3h0h0c1.7,0,3,1.3,3,3v0v0c0-1.7,1.3-3,3-3h0h0C4.3,3,3,1.7,3,0L3,0z"/></g>
<g transform="translate(528,264) scale(4.12)"><path d="M3,0L3,0c0,1.7-1.3,3-3,3h0h0c1.7,0,3,1.3,3,3v0v0c0-1.7,1.3-3,3-3h0h0C4.3,3,3,1.7,3,0L3,0z"/></g>
<g transform="translate(552,264) scale(4.12)"><path d="M3,0L3,0c0,1.7-1.3,3-3,3h0h0c1.7,0,3,1.3,3,3v0v0c0-1.7,1.3-3,3-3h0h0C4.3,3,3,1.7,3,0L3,0z"/></g>
<g transform="translate(600,264) scale(4.12)"><path d="M3,0L3,0c0,1.7-1.3,3-3,3h0h0c1.7,0,3,1.3,3,3v0v0c0-1.7,1.3-3,3-3h0h0C4.3,3,3,1.7,3,0L3,0z"/></g>
<g transform="translate(672,264) scale(4.12)"><path d="M3,0L3,0c0,1.7-1.3,3-3,3h0h0c1.7,0,3,1.3,3,3v0v0c0-1.7,1.3-3,3-3h0h0C4.3,3,3,1.7,3,0L3,0z"/></g>
<g transform="translate(696,264) scale(4.12)"><path d="M3,0L3,0c0,1.7-1.3,3-3,3h0h0c1.7,0,3,1.3,3,3v0v0c0-1.7,1.3-3,3-3h0h0C4.3,3,3,1.7,3,0L3,0z"/></g>
<g transform="translate(744,264) scale(4.12)"><path d="M3,0L3,0c0,1.7-1.3,3-3,3h0h0c1.7,0,3,1.3,3,3v0v0c0-1.7,1.3-3,3-3h0h0C4.3,3,3,1.7,3,0L3,0z"/></g>
<g transform="translate(768,264) scale(4.12)"><path d="M3,0L3,0c0,1.7-1.3,3-3,3h0h0c1.7,0,3,1.3,3,3v0v0c0-1.7,1.3-3,3-3h0h0C4.3,3,3,1.7,3,0L3,0z"/></g>
<g transform="translate(792,264) scale(4.12)"><path d="M3,0L3,0c0,1.7-1.3,3-3,3h0h0c1.7,0,3,1.3,3,3v0v0c0-1.7,1.3-3,3-3h0h0C4.3,3,3,1.7,3,0L3,0z"/></g>
<g transform="translate(816,264) scale(4.12)"><path d="M3,0L3,0c0,1.7-1.3,3-3,3h0h0c1.7,0,3,1.3,3,3v0v0c0-1.7,1.3-3,3-3h0h0C4.3,3,3,1.7,3,0L3,0z"/></g>
<g transform="translate(120,288) scale(4.12)"><path d="M3,0L3,0c0,1.7-1.3,3-3,3h0h0c1.7,0,3,1.3,3,3v0v0c0-1.7,1.3-3,3-3h0h0C4.3,3,3,1.7,3,0L3,0z"/></g>
<g transform="translate(144,288) scale(4.12)"><path d="M3,0L3,0c0,1.7-1.3,3-3,3h0h0c1.7,0,3,1.3,3,3v0v0c0-1.7,1.3-3,3-3h0h0C4.3,3,3,1.7,3,0L3,0z"/></g>
<g transform="translate(192,288) scale(4.12)"><path d="M3,0L3,0c0,1.7-1.3,3-3,3h0h0c1.7,0,3,1.3,3,3v0v0c0-1.7,1.3-3,3-3h0h0C4.3,3,3,1.7,3,0L3,0z"/></g>
<g transform="translate(216,288) scale(4.12)"><path d="M3,0L3,0c0,1.7-1.3,3-3,3h0h0c1.7,0,3,1.3,3,3v0v0c0-1.7,1.3-3,3-3h0h0C4.3,3,3,1.7,3,0L3,0z"/></g>
<g transform="translate(240,288) scale(4.12)"><path d="M3,0L3,0c0,1.7-1.3,3-3,3h0h0c1.7,0,3,1.3,3,3v0v0c0-1.7,1.3-3,3-3h0h0C4.3,3,3,1.7,3,0L3,0z"/></g>
<g transform="translate(264,288) scale(4.12)"><path d="M3,0L3,0c0,1.7-1.3,3-3,3h0h0c1.7,0,3,1.3,3,3v0v0c0-1.7,1.3-3,3-3h0h0C4.3,3,3,1.7,3,0L3,0z"/></g>
<g transform="translate(312,288) scale(4.12)"><path d="M3,0L3,0c0,1.7-1.3,3-3,3h0h0c1.7,0,3,1.3,3,3v0v0c0-1.7,1.3-3,3-3h0h0C4.3,3,3,1.7,3,0L3,0z"/></g>
<g transform="translate(336,288) scale(4.12)"><path d="M3,0L3,0c0,1.7-1.3,3-3,3h0h0c1.7,0,3,1.3,3,3v0v0c0-1.7,1.3-3,3-3h0h0C4.3,3,3,1.7,3,0L3,0z"/></g>
<g transform="translate(384,288) scale(4.12)"><path d="M3,0L3,0c0,1.7-1.3,3-3,3h0h0c1.7,0,3,1.3,3,3v0v0c0-1.7,1.3-3,3-3h0h0C4.3,3,3,1.7,3,0L3,0z"/></g>
<g transform="translate(408,288) scale(4.12)"><path d="M3,0L3,0c0,1.7-1.3,3-3,3h0h0c1.7,0,3,1.3,3,3v0v0c0-1.7,1.3-3,3-3h0h0C4.3,3,3,1.7,3,0L3,0z"/></g>
<g transform="translate(432,288) scale(4.12)"><path d="M3,0L3,0c0,1.7-1.3,3-3,3h0h0c1.7,0,3,1.3,3,3v0v0c0-1.7,1.3-3,3-3h0h0C4.3,3,3,1.7,3,0L3,0z"/></g>
<g transform="translate(480,288) scale(4.12)"><path d="M3,0L3,0c0,1.7-1.3,3-3,3h0h0c1.7,0,3,1.3,3,3v0v0c0-1.7,1.3-3,3-3h0h0C4.3,3,3,1.7,3,0L3,0z"/></g>
<g transform="translate(528,288) scale(4.12)"><path d="M3,0L3,0c0,1.7-1.3,3-3,3h0h0c1.7,0,3,1.3,3,3v0v0c0-1.7,1.3-3,3-3h0h0C4.3,3,3,1.7,3,0L3,0z"/></g>
<g transform="translate(552,288) scale(4.12)"><path d="M3,0L3,0c0,1.7-1.3,3-3,3h0h0c1.7,0,3,1.3,3,3v0v0c0-1.7,1.3-3,3-3h0h0C4.3,3,3,1.7,3,0L3,0z"/></g>
<g transform="translate(576,288) scale(4.12)"><path d="M3,0L3,0c0,1.7-1.3,3-3,3h0h0c1.7,0,3,1.3,3,3v0v0c0-1.7,1.3-3,3-3h0h0C4.3,3,3,1.7,3,0L3,0z"/></g>
<g transform="translate(720,288) scale(4.12)"><path d="M3,0L3,0c0,1.7-1.3,3-3,3h0h0c1.7,0,3,1.3,3,3v0v0c0-1.7,1.3-3,3-3h0h0C4.3,3,3,1.7,3,0L3,0z"/></g>
<g transform="translate(768,288) scale(4.12)"><path d="M3,0L3,0c0,1.7-1.3,3-3,3h0h0c1.7,0,3,1.3,3,3v0v0c0-1.7,1.3-3,3-3h0h0C4.3,3,3,1.7,3,0L3,0z"/></g>
<g transform="translate(792,288) scale(4.12)"><path d="M3,0L3,0c0,1.7-1.3,3-3,3h0h0c1.7,0,3,1.3,3,3v0v0c0-1.7,1.3-3,3-3h0h0C4.3,3,3,1.7,3,0L3,0z"/></g>
<g transform="translate(216,312) scale(4.12)"><path d="M3,0L3,0c0,1.7-1.3,3-3,3h0h0c1.7,0,3,1.3,3,3v0v0c0-1.7,1.3-3,3-3h0h0C4.3,3,3,1.7,3,0L3,0z"/></g>
<g transform="translate(240,312) scale(4.12)"><path d="M3,0L3,0c0,1.7-1.3,3-3,3h0h0c1.7,0,3,1.3,3,3v0v0c0-1.7,1.3-3,3-3h0h0C4.3,3,3,1.7,3,0L3,0z"/></g>
<g transform="translate(336,312) scale(4.12)"><path d="M3,0L3,0c0,1.7-1.3,3-3,3h0h0c1.7,0,3,1.3,3,3v0v0c0-1.7,1.3-3,3-3h0h0C4.3,3,3,1.7,3,0L3,0z"/></g>
<g transform="translate(384,312) scale(4.12)"><path d="M3,0L3,0c0,1.7-1.3,3-3,3h0h0c1.7,0,3,1.3,3,3v0v0c0-1.7,1.3-3,3-3h0h0C4.3,3,3,1.7,3,0L3,0z"/></g>
<g transform="translate(432,312) scale(4.12)"><path d="M3,0L3,0c0,1.7-1.3,3-3,3h0h0c1.7,0,3,1.3,3,3v0v0c0-1.7,1.3-3,3-3h0h0C4.3,3,3,1.7,3,0L3,0z"/></g>
<g transform="translate(528,312) scale(4.12)"><path d="M3,0L3,0c0,1.7-1.3,3-3,3h0h0c1.7,0,3,1.3,3,3v0v0c0-1.7,1.3-3,3-3h0h0C4.3,3,3,1.7,3,0L3,0z"/></g>
<g transform="translate(552,312) scale(4.12)"><path d="M3,0L3,0c0,1.7-1.3,3-3,3h0h0c1.7,0,3,1.3,3,3v0v0c0-1.7,1.3-3,3-3h0h0C4.3,3,3,1.7,3,0L3,0z"/></g>
<g transform="translate(576,312) scale(4.12)"><path d="M3,0L3,0c0,1.7-1.3,3-3,3h0h0c1.7,0,3,1.3,3,3v0v0c0-1.7,1.3-3,3-3h0h0C4.3,3,3,1.7,3,0L3,0z"/></g>
<g transform="translate(600,312) scale(4.12)"><path d="M3,0L3,0c0,1.7-1.3,3-3,3h0h0c1.7,0,3,1.3,3,3v0v0c0-1.7,1.3-3,3-3h0h0C4.3,3,3,1.7,3,0L3,0z"/></g>
<g transform="translate(648,312) scale(4.12)"><path d="M3,0L3,0c0,1.7-1.3,3-3,3h0h0c1.7,0,3,1.3,3,3v0v0c0-1.7,1.3-3,3-3h0h0C4.3,3,3,1.7,3,0L3,0z"/></g>
<g transform="translate(720,312) scale(4.12)"><path d="M3,0L3,0c0,1.7-1.3,3-3,3h0h0c1.7,0,3,1.3,3,3v0v0c0-1.7,1.3-3,3-3h0h0C4.3,3,3,1.7,3,0L3,0z"/></g>
<g transform="translate(744,312) scale(4.12)"><path d="M3,0L3,0c0,1.7-1.3,3-3,3h0h0c1.7,0,3,1.3,3,3v0v0c0-1.7,1.3-3,3-3h0h0C4.3,3,3,1.7,3,0L3,0z"/></g>
<g transform="translate(768,312) scale(4.12)"><path d="M3,0L3,0c0,1.7-1.3,3-3,3h0h0c1.7,0,3,1.3,3,3v0v0c0-1.7,1.3-3,3-3h0h0C4.3,3,3,1.7,3,0L3,0z"/></g>
<g transform="translate(792,312) scale(4.12)"><path d="M3,0L3,0c0,1.7-1.3,3-3,3h0h0c1.7,0,3,1.3,3,3v0v0c0-1.7,1.3-3,3-3h0h0C4.3,3,3,1.7,3,0L3,0z"/></g>
<g transform="translate(816,312) scale(4.12)"><path d="M3,0L3,0c0,1.7-1.3,3-3,3h0h0c1.7,0,3,1.3,3,3v0v0c0-1.7,1.3-3,3-3h0h0C4.3,3,3,1.7,3,0L3,0z"/></g>
<g transform="translate(120,336) scale(4.12)"><path d="M3,0L3,0c0,1.7-1.3,3-3,3h0h0c1.7,0,3,1.3,3,3v0v0c0-1.7,1.3-3,3-3h0h0C4.3,3,3,1.7,3,0L3,0z"/></g>
<g transform="translate(192,336) scale(4.12)"><path d="M3,0L3,0c0,1.7-1.3,3-3,3h0h0c1.7,0,3,1.3,3,3v0v0c0-1.7,1.3-3,3-3h0h0C4.3,3,3,1.7,3,0L3,0z"/></g>
<g transform="translate(240,336) scale(4.12)"><path d="M3,0L3,0c0,1.7-1.3,3-3,3h0h0c1.7,0,3,1.3,3,3v0v0c0-1.7,1.3-3,3-3h0h0C4.3,3,3,1.7,3,0L3,0z"/></g>
<g transform="translate(288,336) scale(4.12)"><path d="M3,0L3,0c0,1.7-1.3,3-3,3h0h0c1.7,0,3,1.3,3,3v0v0c0-1.7,1.3-3,3-3h0h0C4.3,3,3,1.7,3,0L3,0z"/></g>
<g transform="translate(312,336) scale(4.12)"><path d="M3,0L3,0c0,1.7-1.3,3-3,3h0h0c1.7,0,3,1.3,3,3v0v0c0-1.7,1.3-3,3-3h0h0C4.3,3,3,1.7,3,0L3,0z"/></g>
<g transform="translate(384,336) scale(4.12)"><path d="M3,0L3,0c0,1.7-1.3,3-3,3h0h0c1.7,0,3,1.3,3,3v0v0c0-1.7,1.3-3,3-3h0h0C4.3,3,3,1.7,3,0L3,0z"/></g>
<g transform="translate(408,336) scale(4.12)"><path d="M3,0L3,0c0,1.7-1.3,3-3,3h0h0c1.7,0,3,1.3,3,3v0v0c0-1.7,1.3-3,3-3h0h0C4.3,3,3,1.7,3,0L3,0z"/></g>
<g transform="translate(432,336) scale(4.12)"><path d="M3,0L3,0c0,1.7-1.3,3-3,3h0h0c1.7,0,3,1.3,3,3v0v0c0-1.7,1.3-3,3-3h0h0C4.3,3,3,1.7,3,0L3,0z"/></g>
<g transform="translate(480,336) scale(4.12)"><path d="M3,0L3,0c0,1.7-1.3,3-3,3h0h0c1.7,0,3,1.3,3,3v0v0c0-1.7,1.3-3,3-3h0h0C4.3,3,3,1.7,3,0L3,0z"/></g>
<g transform="translate(576,336) scale(4.12)"><path d="M3,0L3,0c0,1.7-1.3,3-3,3h0h0c1.7,0,3,1.3,3,3v0v0c0-1.7,1.3-3,3-3h0h0C4.3,3,3,1.7,3,0L3,0z"/></g>
<g transform="translate(600,336) scale(4.12)"><path d="M3,0L3,0c0,1.7-1.3,3-3,3h0h0c1.7,0,3,1.3,3,3v0v0c0-1.7,1.3-3,3-3h0h0C4.3,3,3,1.7,3,0L3,0z"/></g>
<g transform="translate(624,336) scale(4.12)"><path d="M3,0L3,0c0,1.7-1.3,3-3,3h0h0c1.7,0,3,1.3,3,3v0v0c0-1.7,1.3-3,3-3h0h0C4.3,3,3,1.7,3,0L3,0z"/></g>
<g transform="translate(648,336) scale(4.12)"><path d="M3,0L3,0c0,1.7-1.3,3-3,3h0h0c1.7,0,3,1.3,3,3v0v0c0-1.7,1.3-3,3-3h0h0C4.3,3,3,1.7,3,0L3,0z"/></g>
<g transform="translate(720,336) scale(4.12)"><path d="M3,0L3,0c0,1.7-1.3,3-3,3h0h0c1.7,0,3,1.3,3,3v0v0c0-1.7,1.3-3,3-3h0h0C4.3,3,3,1.7,3,0L3,0z"/></g>
<g transform="translate(744,336) scale(4.12)"><path d="M3,0L3,0c0,1.7-1.3,3-3,3h0h0c1.7,0,3,1.3,3,3v0v0c0-1.7,1.3-3,3-3h0h0C4.3,3,3,1.7,3,0L3,0z"/></g>
<g transform="translate(792,336) scale(4.12)"><path d="M3,0L3,0c0,1.7-1.3,3-3,3h0h0c1.7,0,3,1.3,3,3v0v0c0-1.7,1.3-3,3-3h0h0C4.3,3,3,1.7,3,0L3,0z"/></g>
<g transform="translate(816,336) scale(4.12)"><path d="M3,0L3,0c0,1.7-1.3,3-3,3h0h0c1.7,0,3,1.3,3,3v0v0c0-1.7,1.3-3,3-3h0h0C4.3,3,3,1.7,3,0L3,0z"/></g>
<g transform="translate(48,360) scale(4.12)"><path d="M3,0L3,0c0,1.7-1.3,3-3,3h0h0c1.7,0,3,1.3,3,3v0v0c0-1.7,1.3-3,3-3h0h0C4.3,3,3,1.7,3,0L3,0z"/></g>
<g transform="translate(120,360) scale(4.12)"><path d="M3,0L3,0c0,1.7-1.3,3-3,3h0h0c1.7,0,3,1.3,3,3v0v0c0-1.7,1.3-3,3-3h0h0C4.3,3,3,1.7,3,0L3,0z"/></g>
<g transform="translate(168,360) scale(4.12)"><path d="M3,0L3,0c0,1.7-1.3,3-3,3h0h0c1.7,0,3,1.3,3,3v0v0c0-1.7,1.3-3,3-3h0h0C4.3,3,3,1.7,3,0L3,0z"/></g>
<g transform="translate(216,360) scale(4.12)"><path d="M3,0L3,0c0,1.7-1.3,3-3,3h0h0c1.7,0,3,1.3,3,3v0v0c0-1.7,1.3-3,3-3h0h0C4.3,3,3,1.7,3,0L3,0z"/></g>
<g transform="translate(288,360) scale(4.12)"><path d="M3,0L3,0c0,1.7-1.3,3-3,3h0h0c1.7,0,3,1.3,3,3v0v0c0-1.7,1.3-3,3-3h0h0C4.3,3,3,1.7,3,0L3,0z"/></g>
<g transform="translate(336,360) scale(4.12)"><path d="M3,0L3,0c0,1.7-1.3,3-3,3h0h0c1.7,0,3,1.3,3,3v0v0c0-1.7,1.3-3,3-3h0h0C4.3,3,3,1.7,3,0L3,0z"/></g>
<g transform="translate(360,360) scale(4.12)"><path d="M3,0L3,0c0,1.7-1.3,3-3,3h0h0c1.7,0,3,1.3,3,3v0v0c0-1.7,1.3-3,3-3h0h0C4.3,3,3,1.7,3,0L3,0z"/></g>
<g transform="translate(432,360) scale(4.12)"><path d="M3,0L3,0c0,1.7-1.3,3-3,3h0h0c1.7,0,3,1.3,3,3v0v0c0-1.7,1.3-3,3-3h0h0C4.3,3,3,1.7,3,0L3,0z"/></g>
<g transform="translate(456,360) scale(4.12)"><path d="M3,0L3,0c0,1.7-1.3,3-3,3h0h0c1.7,0,3,1.3,3,3v0v0c0-1.7,1.3-3,3-3h0h0C4.3,3,3,1.7,3,0L3,0z"/></g>
<g transform="translate(528,360) scale(4.12)"><path d="M3,0L3,0c0,1.7-1.3,3-3,3h0h0c1.7,0,3,1.3,3,3v0v0c0-1.7,1.3-3,3-3h0h0C4.3,3,3,1.7,3,0L3,0z"/></g>
<g transform="translate(600,360) scale(4.12)"><path d="M3,0L3,0c0,1.7-1.3,3-3,3h0h0c1.7,0,3,1.3,3,3v0v0c0-1.7,1.3-3,3-3h0h0C4.3,3,3,1.7,3,0L3,0z"/></g>
<g transform="translate(648,360) scale(4.12)"><path d="M3,0L3,0c0,1.7-1.3,3-3,3h0h0c1.7,0,3,1.3,3,3v0v0c0-1.7,1.3-3,3-3h0h0C4.3,3,3,1.7,3,0L3,0z"/></g>
<g transform="translate(672,360) scale(4.12)"><path d="M3,0L3,0c0,1.7-1.3,3-3,3h0h0c1.7,0,3,1.3,3,3v0v0c0-1.7,1.3-3,3-3h0h0C4.3,3,3,1.7,3,0L3,0z"/></g>
<g transform="translate(744,360) scale(4.12)"><path d="M3,0L3,0c0,1.7-1.3,3-3,3h0h0c1.7,0,3,1.3,3,3v0v0c0-1.7,1.3-3,3-3h0h0C4.3,3,3,1.7,3,0L3,0z"/></g>
<g transform="translate(768,360) scale(4.12)"><path d="M3,0L3,0c0,1.7-1.3,3-3,3h0h0c1.7,0,3,1.3,3,3v0v0c0-1.7,1.3-3,3-3h0h0C4.3,3,3,1.7,3,0L3,0z"/></g>
<g transform="translate(792,360) scale(4.12)"><path d="M3,0L3,0c0,1.7-1.3,3-3,3h0h0c1.7,0,3,1.3,3,3v0v0c0-1.7,1.3-3,3-3h0h0C4.3,3,3,1.7,3,0L3,0z"/></g>
<g transform="translate(816,360) scale(4.12)"><path d="M3,0L3,0c0,1.7-1.3,3-3,3h0h0c1.7,0,3,1.3,3,3v0v0c0-1.7,1.3-3,3-3h0h0C4.3,3,3,1.7,3,0L3,0z"/></g>
<g transform="translate(48,384) scale(4.12)"><path d="M3,0L3,0c0,1.7-1.3,3-3,3h0h0c1.7,0,3,1.3,3,3v0v0c0-1.7,1.3-3,3-3h0h0C4.3,3,3,1.7,3,0L3,0z"/></g>
<g transform="translate(72,384) scale(4.12)"><path d="M3,0L3,0c0,1.7-1.3,3-3,3h0h0c1.7,0,3,1.3,3,3v0v0c0-1.7,1.3-3,3-3h0h0C4.3,3,3,1.7,3,0L3,0z"/></g>
<g transform="translate(96,384) scale(4.12)"><path d="M3,0L3,0c0,1.7-1.3,3-3,3h0h0c1.7,0,3,1.3,3,3v0v0c0-1.7,1.3-3,3-3h0h0C4.3,3,3,1.7,3,0L3,0z"/></g>
<g transform="translate(120,384) scale(4.12)"><path d="M3,0L3,0c0,1.7-1.3,3-3,3h0h0c1.7,0,3,1.3,3,3v0v0c0-1.7,1.3-3,3-3h0h0C4.3,3,3,1.7,3,0L3,0z"/></g>
<g transform="translate(168,384) scale(4.12)"><path d="M3,0L3,0c0,1.7-1.3,3-3,3h0h0c1.7,0,3,1.3,3,3v0v0c0-1.7,1.3-3,3-3h0h0C4.3,3,3,1.7,3,0L3,0z"/></g>
<g transform="translate(192,384) scale(4.12)"><path d="M3,0L3,0c0,1.7-1.3,3-3,3h0h0c1.7,0,3,1.3,3,3v0v0c0-1.7,1.3-3,3-3h0h0C4.3,3,3,1.7,3,0L3,0z"/></g>
<g transform="translate(216,384) scale(4.12)"><path d="M3,0L3,0c0,1.7-1.3,3-3,3h0h0c1.7,0,3,1.3,3,3v0v0c0-1.7,1.3-3,3-3h0h0C4.3,3,3,1.7,3,0L3,0z"/></g>
<g transform="translate(240,384) scale(4.12)"><path d="M3,0L3,0c0,1.7-1.3,3-3,3h0h0c1.7,0,3,1.3,3,3v0v0c0-1.7,1.3-3,3-3h0h0C4.3,3,3,1.7,3,0L3,0z"/></g>
<g transform="translate(264,384) scale(4.12)"><path d="M3,0L3,0c0,1.7-1.3,3-3,3h0h0c1.7,0,3,1.3,3,3v0v0c0-1.7,1.3-3,3-3h0h0C4.3,3,3,1.7,3,0L3,0z"/></g>
<g transform="translate(288,384) scale(4.12)"><path d="M3,0L3,0c0,1.7-1.3,3-3,3h0h0c1.7,0,3,1.3,3,3v0v0c0-1.7,1.3-3,3-3h0h0C4.3,3,3,1.7,3,0L3,0z"/></g>
<g transform="translate(312,384) scale(4.12)"><path d="M3,0L3,0c0,1.7-1.3,3-3,3h0h0c1.7,0,3,1.3,3,3v0v0c0-1.7,1.3-3,3-3h0h0C4.3,3,3,1.7,3,0L3,0z"/></g>
<g transform="translate(456,384) scale(4.12)"><path d="M3,0L3,0c0,1.7-1.3,3-3,3h0h0c1.7,0,3,1.3,3,3v0v0c0-1.7,1.3-3,3-3h0h0C4.3,3,3,1.7,3,0L3,0z"/></g>
<g transform="translate(480,384) scale(4.12)"><path d="M3,0L3,0c0,1.7-1.3,3-3,3h0h0c1.7,0,3,1.3,3,3v0v0c0-1.7,1.3-3,3-3h0h0C4.3,3,3,1.7,3,0L3,0z"/></g>
<g transform="translate(504,384) scale(4.12)"><path d="M3,0L3,0c0,1.7-1.3,3-3,3h0h0c1.7,0,3,1.3,3,3v0v0c0-1.7,1.3-3,3-3h0h0C4.3,3,3,1.7,3,0L3,0z"/></g>
<g transform="translate(576,384) scale(4.12)"><path d="M3,0L3,0c0,1.7-1.3,3-3,3h0h0c1.7,0,3,1.3,3,3v0v0c0-1.7,1.3-3,3-3h0h0C4.3,3,3,1.7,3,0L3,0z"/></g>
<g transform="translate(624,384) scale(4.12)"><path d="M3,0L3,0c0,1.7-1.3,3-3,3h0h0c1.7,0,3,1.3,3,3v0v0c0-1.7,1.3-3,3-3h0h0C4.3,3,3,1.7,3,0L3,0z"/></g>
<g transform="translate(648,384) scale(4.12)"><path d="M3,0L3,0c0,1.7-1.3,3-3,3h0h0c1.7,0,3,1.3,3,3v0v0c0-1.7,1.3-3,3-3h0h0C4.3,3,3,1.7,3,0L3,0z"/></g>
<g transform="translate(672,384) scale(4.12)"><path d="M3,0L3,0c0,1.7-1.3,3-3,3h0h0c1.7,0,3,1.3,3,3v0v0c0-1.7,1.3-3,3-3h0h0C4.3,3,3,1.7,3,0L3,0z"/></g>
<g transform="translate(768,384) scale(4.12)"><path d="M3,0L3,0c0,1.7-1.3,3-3,3h0h0c1.7,0,3,1.3,3,3v0v0c0-1.7,1.3-3,3-3h0h0C4.3,3,3,1.7,3,0L3,0z"/></g>
<g transform="translate(792,384) scale(4.12)"><path d="M3,0L3,0c0,1.7-1.3,3-3,3h0h0c1.7,0,3,1.3,3,3v0v0c0-1.7,1.3-3,3-3h0h0C4.3,3,3,1.7,3,0L3,0z"/></g>
<g transform="translate(48,408) scale(4.12)"><path d="M3,0L3,0c0,1.7-1.3,3-3,3h0h0c1.7,0,3,1.3,3,3v0v0c0-1.7,1.3-3,3-3h0h0C4.3,3,3,1.7,3,0L3,0z"/></g>
<g transform="translate(96,408) scale(4.12)"><path d="M3,0L3,0c0,1.7-1.3,3-3,3h0h0c1.7,0,3,1.3,3,3v0v0c0-1.7,1.3-3,3-3h0h0C4.3,3,3,1.7,3,0L3,0z"/></g>
<g transform="translate(120,408) scale(4.12)"><path d="M3,0L3,0c0,1.7-1.3,3-3,3h0h0c1.7,0,3,1.3,3,3v0v0c0-1.7,1.3-3,3-3h0h0C4.3,3,3,1.7,3,0L3,0z"/></g>
<g transform="translate(168,408) scale(4.12)"><path d="M3,0L3,0c0,1.7-1.3,3-3,3h0h0c1.7,0,3,1.3,3,3v0v0c0-1.7,1.3-3,3-3h0h0C4.3,3,3,1.7,3,0L3,0z"/></g>
<g transform="translate(216,408) scale(4.12)"><path d="M3,0L3,0c0,1.7-1.3,3-3,3h0h0c1.7,0,3,1.3,3,3v0v0c0-1.7,1.3-3,3-3h0h0C4.3,3,3,1.7,3,0L3,0z"/></g>
<g transform="translate(240,408) scale(4.12)"><path d="M3,0L3,0c0,1.7-1.3,3-3,3h0h0c1.7,0,3,1.3,3,3v0v0c0-1.7,1.3-3,3-3h0h0C4.3,3,3,1.7,3,0L3,0z"/></g>
<g transform="translate(264,408) scale(4.12)"><path d="M3,0L3,0c0,1.7-1.3,3-3,3h0h0c1.7,0,3,1.3,3,3v0v0c0-1.7,1.3-3,3-3h0h0C4.3,3,3,1.7,3,0L3,0z"/></g>
<g transform="translate(336,408) scale(4.12)"><path d="M3,0L3,0c0,1.7-1.3,3-3,3h0h0c1.7,0,3,1.3,3,3v0v0c0-1.7,1.3-3,3-3h0h0C4.3,3,3,1.7,3,0L3,0z"/></g>
<g transform="translate(360,408) scale(4.12)"><path d="M3,0L3,0c0,1.7-1.3,3-3,3h0h0c1.7,0,3,1.3,3,3v0v0c0-1.7,1.3-3,3-3h0h0C4.3,3,3,1.7,3,0L3,0z"/></g>
<g transform="translate(408,408) scale(4.12)"><path d="M3,0L3,0c0,1.7-1.3,3-3,3h0h0c1.7,0,3,1.3,3,3v0v0c0-1.7,1.3-3,3-3h0h0C4.3,3,3,1.7,3,0L3,0z"/></g>
<g transform="translate(432,408) scale(4.12)"><path d="M3,0L3,0c0,1.7-1.3,3-3,3h0h0c1.7,0,3,1.3,3,3v0v0c0-1.7,1.3-3,3-3h0h0C4.3,3,3,1.7,3,0L3,0z"/></g>
<g transform="translate(504,408) scale(4.12)"><path d="M3,0L3,0c0,1.7-1.3,3-3,3h0h0c1.7,0,3,1.3,3,3v0v0c0-1.7,1.3-3,3-3h0h0C4.3,3,3,1.7,3,0L3,0z"/></g>
<g transform="translate(528,408) scale(4.12)"><path d="M3,0L3,0c0,1.7-1.3,3-3,3h0h0c1.7,0,3,1.3,3,3v0v0c0-1.7,1.3-3,3-3h0h0C4.3,3,3,1.7,3,0L3,0z"/></g>
<g transform="translate(552,408) scale(4.12)"><path d="M3,0L3,0c0,1.7-1.3,3-3,3h0h0c1.7,0,3,1.3,3,3v0v0c0-1.7,1.3-3,3-3h0h0C4.3,3,3,1.7,3,0L3,0z"/></g>
<g transform="translate(600,408) scale(4.12)"><path d="M3,0L3,0c0,1.7-1.3,3-3,3h0h0c1.7,0,3,1.3,3,3v0v0c0-1.7,1.3-3,3-3h0h0C4.3,3,3,1.7,3,0L3,0z"/></g>
<g transform="translate(648,408) scale(4.12)"><path d="M3,0L3,0c0,1.7-1.3,3-3,3h0h0c1.7,0,3,1.3,3,3v0v0c0-1.7,1.3-3,3-3h0h0C4.3,3,3,1.7,3,0L3,0z"/></g>
<g transform="translate(672,408) scale(4.12)"><path d="M3,0L3,0c0,1.7-1.3,3-3,3h0h0c1.7,0,3,1.3,3,3v0v0c0-1.7,1.3-3,3-3h0h0C4.3,3,3,1.7,3,0L3,0z"/></g>
<g transform="translate(720,408) scale(4.12)"><path d="M3,0L3,0c0,1.7-1.3,3-3,3h0h0c1.7,0,3,1.3,3,3v0v0c0-1.7,1.3-3,3-3h0h0C4.3,3,3,1.7,3,0L3,0z"/></g>
<g transform="translate(744,408) scale(4.12)"><path d="M3,0L3,0c0,1.7-1.3,3-3,3h0h0c1.7,0,3,1.3,3,3v0v0c0-1.7,1.3-3,3-3h0h0C4.3,3,3,1.7,3,0L3,0z"/></g>
<g transform="translate(768,408) scale(4.12)"><path d="M3,0L3,0c0,1.7-1.3,3-3,3h0h0c1.7,0,3,1.3,3,3v0v0c0-1.7,1.3-3,3-3h0h0C4.3,3,3,1.7,3,0L3,0z"/></g>
<g transform="translate(48,432) scale(4.12)"><path d="M3,0L3,0c0,1.7-1.3,3-3,3h0h0c1.7,0,3,1.3,3,3v0v0c0-1.7,1.3-3,3-3h0h0C4.3,3,3,1.7,3,0L3,0z"/></g>
<g transform="translate(120,432) scale(4.12)"><path d="M3,0L3,0c0,1.7-1.3,3-3,3h0h0c1.7,0,3,1.3,3,3v0v0c0-1.7,1.3-3,3-3h0h0C4.3,3,3,1.7,3,0L3,0z"/></g>
<g transform="translate(144,432) scale(4.12)"><path d="M3,0L3,0c0,1.7-1.3,3-3,3h0h0c1.7,0,3,1.3,3,3v0v0c0-1.7,1.3-3,3-3h0h0C4.3,3,3,1.7,3,0L3,0z"/></g>
<g transform="translate(168,432) scale(4.12)"><path d="M3,0L3,0c0,1.7-1.3,3-3,3h0h0c1.7,0,3,1.3,3,3v0v0c0-1.7,1.3-3,3-3h0h0C4.3,3,3,1.7,3,0L3,0z"/></g>
<g transform="translate(192,432) scale(4.12)"><path d="M3,0L3,0c0,1.7-1.3,3-3,3h0h0c1.7,0,3,1.3,3,3v0v0c0-1.7,1.3-3,3-3h0h0C4.3,3,3,1.7,3,0L3,0z"/></g>
<g transform="translate(216,432) scale(4.12)"><path d="M3,0L3,0c0,1.7-1.3,3-3,3h0h0c1.7,0,3,1.3,3,3v0v0c0-1.7,1.3-3,3-3h0h0C4.3,3,3,1.7,3,0L3,0z"/></g>
<g transform="translate(360,432) scale(4.12)"><path d="M3,0L3,0c0,1.7-1.3,3-3,3h0h0c1.7,0,3,1.3,3,3v0v0c0-1.7,1.3-3,3-3h0h0C4.3,3,3,1.7,3,0L3,0z"/></g>
<g transform="translate(408,432) scale(4.12)"><path d="M3,0L3,0c0,1.7-1.3,3-3,3h0h0c1.7,0,3,1.3,3,3v0v0c0-1.7,1.3-3,3-3h0h0C4.3,3,3,1.7,3,0L3,0z"/></g>
<g transform="translate(432,432) scale(4.12)"><path d="M3,0L3,0c0,1.7-1.3,3-3,3h0h0c1.7,0,3,1.3,3,3v0v0c0-1.7,1.3-3,3-3h0h0C4.3,3,3,1.7,3,0L3,0z"/></g>
<g transform="translate(456,432) scale(4.12)"><path d="M3,0L3,0c0,1.7-1.3,3-3,3h0h0c1.7,0,3,1.3,3,3v0v0c0-1.7,1.3-3,3-3h0h0C4.3,3,3,1.7,3,0L3,0z"/></g>
<g transform="translate(480,432) scale(4.12)"><path d="M3,0L3,0c0,1.7-1.3,3-3,3h0h0c1.7,0,3,1.3,3,3v0v0c0-1.7,1.3-3,3-3h0h0C4.3,3,3,1.7,3,0L3,0z"/></g>
<g transform="translate(504,432) scale(4.12)"><path d="M3,0L3,0c0,1.7-1.3,3-3,3h0h0c1.7,0,3,1.3,3,3v0v0c0-1.7,1.3-3,3-3h0h0C4.3,3,3,1.7,3,0L3,0z"/></g>
<g transform="translate(528,432) scale(4.12)"><path d="M3,0L3,0c0,1.7-1.3,3-3,3h0h0c1.7,0,3,1.3,3,3v0v0c0-1.7,1.3-3,3-3h0h0C4.3,3,3,1.7,3,0L3,0z"/></g>
<g transform="translate(576,432) scale(4.12)"><path d="M3,0L3,0c0,1.7-1.3,3-3,3h0h0c1.7,0,3,1.3,3,3v0v0c0-1.7,1.3-3,3-3h0h0C4.3,3,3,1.7,3,0L3,0z"/></g>
<g transform="translate(600,432) scale(4.12)"><path d="M3,0L3,0c0,1.7-1.3,3-3,3h0h0c1.7,0,3,1.3,3,3v0v0c0-1.7,1.3-3,3-3h0h0C4.3,3,3,1.7,3,0L3,0z"/></g>
<g transform="translate(624,432) scale(4.12)"><path d="M3,0L3,0c0,1.7-1.3,3-3,3h0h0c1.7,0,3,1.3,3,3v0v0c0-1.7,1.3-3,3-3h0h0C4.3,3,3,1.7,3,0L3,0z"/></g>
<g transform="translate(648,432) scale(4.12)"><path d="M3,0L3,0c0,1.7-1.3,3-3,3h0h0c1.7,0,3,1.3,3,3v0v0c0-1.7,1.3-3,3-3h0h0C4.3,3,3,1.7,3,0L3,0z"/></g>
<g transform="translate(696,432) scale(4.12)"><path d="M3,0L3,0c0,1.7-1.3,3-3,3h0h0c1.7,0,3,1.3,3,3v0v0c0-1.7,1.3-3,3-3h0h0C4.3,3,3,1.7,3,0L3,0z"/></g>
<g transform="translate(720,432) scale(4.12)"><path d="M3,0L3,0c0,1.7-1.3,3-3,3h0h0c1.7,0,3,1.3,3,3v0v0c0-1.7,1.3-3,3-3h0h0C4.3,3,3,1.7,3,0L3,0z"/></g>
<g transform="translate(816,432) scale(4.12)"><path d="M3,0L3,0c0,1.7-1.3,3-3,3h0h0c1.7,0,3,1.3,3,3v0v0c0-1.7,1.3-3,3-3h0h0C4.3,3,3,1.7,3,0L3,0z"/></g>
<g transform="translate(72,456) scale(4.12)"><path d="M3,0L3,0c0,1.7-1.3,3-3,3h0h0c1.7,0,3,1.3,3,3v0v0c0-1.7,1.3-3,3-3h0h0C4.3,3,3,1.7,3,0L3,0z"/></g>
<g transform="translate(144,456) scale(4.12)"><path d="M3,0L3,0c0,1.7-1.3,3-3,3h0h0c1.7,0,3,1.3,3,3v0v0c0-1.7,1.3-3,3-3h0h0C4.3,3,3,1.7,3,0L3,0z"/></g>
<g transform="translate(216,456) scale(4.12)"><path d="M3,0L3,0c0,1.7-1.3,3-3,3h0h0c1.7,0,3,1.3,3,3v0v0c0-1.7,1.3-3,3-3h0h0C4.3,3,3,1.7,3,0L3,0z"/></g>
<g transform="translate(240,456) scale(4.12)"><path d="M3,0L3,0c0,1.7-1.3,3-3,3h0h0c1.7,0,3,1.3,3,3v0v0c0-1.7,1.3-3,3-3h0h0C4.3,3,3,1.7,3,0L3,0z"/></g>
<g transform="translate(288,456) scale(4.12)"><path d="M3,0L3,0c0,1.7-1.3,3-3,3h0h0c1.7,0,3,1.3,3,3v0v0c0-1.7,1.3-3,3-3h0h0C4.3,3,3,1.7,3,0L3,0z"/></g>
<g transform="translate(336,456) scale(4.12)"><path d="M3,0L3,0c0,1.7-1.3,3-3,3h0h0c1.7,0,3,1.3,3,3v0v0c0-1.7,1.3-3,3-3h0h0C4.3,3,3,1.7,3,0L3,0z"/></g>
<g transform="translate(360,456) scale(4.12)"><path d="M3,0L3,0c0,1.7-1.3,3-3,3h0h0c1.7,0,3,1.3,3,3v0v0c0-1.7,1.3-3,3-3h0h0C4.3,3,3,1.7,3,0L3,0z"/></g>
<g transform="translate(408,456) scale(4.12)"><path d="M3,0L3,0c0,1.7-1.3,3-3,3h0h0c1.7,0,3,1.3,3,3v0v0c0-1.7,1.3-3,3-3h0h0C4.3,3,3,1.7,3,0L3,0z"/></g>
<g transform="translate(432,456) scale(4.12)"><path d="M3,0L3,0c0,1.7-1.3,3-3,3h0h0c1.7,0,3,1.3,3,3v0v0c0-1.7,1.3-3,3-3h0h0C4.3,3,3,1.7,3,0L3,0z"/></g>
<g transform="translate(456,456) scale(4.12)"><path d="M3,0L3,0c0,1.7-1.3,3-3,3h0h0c1.7,0,3,1.3,3,3v0v0c0-1.7,1.3-3,3-3h0h0C4.3,3,3,1.7,3,0L3,0z"/></g>
<g transform="translate(480,456) scale(4.12)"><path d="M3,0L3,0c0,1.7-1.3,3-3,3h0h0c1.7,0,3,1.3,3,3v0v0c0-1.7,1.3-3,3-3h0h0C4.3,3,3,1.7,3,0L3,0z"/></g>
<g transform="translate(504,456) scale(4.12)"><path d="M3,0L3,0c0,1.7-1.3,3-3,3h0h0c1.7,0,3,1.3,3,3v0v0c0-1.7,1.3-3,3-3h0h0C4.3,3,3,1.7,3,0L3,0z"/></g>
<g transform="translate(528,456) scale(4.12)"><path d="M3,0L3,0c0,1.7-1.3,3-3,3h0h0c1.7,0,3,1.3,3,3v0v0c0-1.7,1.3-3,3-3h0h0C4.3,3,3,1.7,3,0L3,0z"/></g>
<g transform="translate(552,456) scale(4.12)"><path d="M3,0L3,0c0,1.7-1.3,3-3,3h0h0c1.7,0,3,1.3,3,3v0v0c0-1.7,1.3-3,3-3h0h0C4.3,3,3,1.7,3,0L3,0z"/></g>
<g transform="translate(600,456) scale(4.12)"><path d="M3,0L3,0c0,1.7-1.3,3-3,3h0h0c1.7,0,3,1.3,3,3v0v0c0-1.7,1.3-3,3-3h0h0C4.3,3,3,1.7,3,0L3,0z"/></g>
<g transform="translate(672,456) scale(4.12)"><path d="M3,0L3,0c0,1.7-1.3,3-3,3h0h0c1.7,0,3,1.3,3,3v0v0c0-1.7,1.3-3,3-3h0h0C4.3,3,3,1.7,3,0L3,0z"/></g>
<g transform="translate(696,456) scale(4.12)"><path d="M3,0L3,0c0,1.7-1.3,3-3,3h0h0c1.7,0,3,1.3,3,3v0v0c0-1.7,1.3-3,3-3h0h0C4.3,3,3,1.7,3,0L3,0z"/></g>
<g transform="translate(744,456) scale(4.12)"><path d="M3,0L3,0c0,1.7-1.3,3-3,3h0h0c1.7,0,3,1.3,3,3v0v0c0-1.7,1.3-3,3-3h0h0C4.3,3,3,1.7,3,0L3,0z"/></g>
<g transform="translate(768,456) scale(4.12)"><path d="M3,0L3,0c0,1.7-1.3,3-3,3h0h0c1.7,0,3,1.3,3,3v0v0c0-1.7,1.3-3,3-3h0h0C4.3,3,3,1.7,3,0L3,0z"/></g>
<g transform="translate(816,456) scale(4.12)"><path d="M3,0L3,0c0,1.7-1.3,3-3,3h0h0c1.7,0,3,1.3,3,3v0v0c0-1.7,1.3-3,3-3h0h0C4.3,3,3,1.7,3,0L3,0z"/></g>
<g transform="translate(48,480) scale(4.12)"><path d="M3,0L3,0c0,1.7-1.3,3-3,3h0h0c1.7,0,3,1.3,3,3v0v0c0-1.7,1.3-3,3-3h0h0C4.3,3,3,1.7,3,0L3,0z"/></g>
<g transform="translate(120,480) scale(4.12)"><path d="M3,0L3,0c0,1.7-1.3,3-3,3h0h0c1.7,0,3,1.3,3,3v0v0c0-1.7,1.3-3,3-3h0h0C4.3,3,3,1.7,3,0L3,0z"/></g>
<g transform="translate(168,480) scale(4.12)"><path d="M3,0L3,0c0,1.7-1.3,3-3,3h0h0c1.7,0,3,1.3,3,3v0v0c0-1.7,1.3-3,3-3h0h0C4.3,3,3,1.7,3,0L3,0z"/></g>
<g transform="translate(192,480) scale(4.12)"><path d="M3,0L3,0c0,1.7-1.3,3-3,3h0h0c1.7,0,3,1.3,3,3v0v0c0-1.7,1.3-3,3-3h0h0C4.3,3,3,1.7,3,0L3,0z"/></g>
<g transform="translate(216,480) scale(4.12)"><path d="M3,0L3,0c0,1.7-1.3,3-3,3h0h0c1.7,0,3,1.3,3,3v0v0c0-1.7,1.3-3,3-3h0h0C4.3,3,3,1.7,3,0L3,0z"/></g>
<g transform="translate(240,480) scale(4.12)"><path d="M3,0L3,0c0,1.7-1.3,3-3,3h0h0c1.7,0,3,1.3,3,3v0v0c0-1.7,1.3-3,3-3h0h0C4.3,3,3,1.7,3,0L3,0z"/></g>
<g transform="translate(264,480) scale(4.12)"><path d="M3,0L3,0c0,1.7-1.3,3-3,3h0h0c1.7,0,3,1.3,3,3v0v0c0-1.7,1.3-3,3-3h0h0C4.3,3,3,1.7,3,0L3,0z"/></g>
<g transform="translate(288,480) scale(4.12)"><path d="M3,0L3,0c0,1.7-1.3,3-3,3h0h0c1.7,0,3,1.3,3,3v0v0c0-1.7,1.3-3,3-3h0h0C4.3,3,3,1.7,3,0L3,0z"/></g>
<g transform="translate(312,480) scale(4.12)"><path d="M3,0L3,0c0,1.7-1.3,3-3,3h0h0c1.7,0,3,1.3,3,3v0v0c0-1.7,1.3-3,3-3h0h0C4.3,3,3,1.7,3,0L3,0z"/></g>
<g transform="translate(336,480) scale(4.12)"><path d="M3,0L3,0c0,1.7-1.3,3-3,3h0h0c1.7,0,3,1.3,3,3v0v0c0-1.7,1.3-3,3-3h0h0C4.3,3,3,1.7,3,0L3,0z"/></g>
<g transform="translate(432,480) scale(4.12)"><path d="M3,0L3,0c0,1.7-1.3,3-3,3h0h0c1.7,0,3,1.3,3,3v0v0c0-1.7,1.3-3,3-3h0h0C4.3,3,3,1.7,3,0L3,0z"/></g>
<g transform="translate(480,480) scale(4.12)"><path d="M3,0L3,0c0,1.7-1.3,3-3,3h0h0c1.7,0,3,1.3,3,3v0v0c0-1.7,1.3-3,3-3h0h0C4.3,3,3,1.7,3,0L3,0z"/></g>
<g transform="translate(552,480) scale(4.12)"><path d="M3,0L3,0c0,1.7-1.3,3-3,3h0h0c1.7,0,3,1.3,3,3v0v0c0-1.7,1.3-3,3-3h0h0C4.3,3,3,1.7,3,0L3,0z"/></g>
<g transform="translate(696,480) scale(4.12)"><path d="M3,0L3,0c0,1.7-1.3,3-3,3h0h0c1.7,0,3,1.3,3,3v0v0c0-1.7,1.3-3,3-3h0h0C4.3,3,3,1.7,3,0L3,0z"/></g>
<g transform="translate(720,480) scale(4.12)"><path d="M3,0L3,0c0,1.7-1.3,3-3,3h0h0c1.7,0,3,1.3,3,3v0v0c0-1.7,1.3-3,3-3h0h0C4.3,3,3,1.7,3,0L3,0z"/></g>
<g transform="translate(768,480) scale(4.12)"><path d="M3,0L3,0c0,1.7-1.3,3-3,3h0h0c1.7,0,3,1.3,3,3v0v0c0-1.7,1.3-3,3-3h0h0C4.3,3,3,1.7,3,0L3,0z"/></g>
<g transform="translate(96,504) scale(4.12)"><path d="M3,0L3,0c0,1.7-1.3,3-3,3h0h0c1.7,0,3,1.3,3,3v0v0c0-1.7,1.3-3,3-3h0h0C4.3,3,3,1.7,3,0L3,0z"/></g>
<g transform="translate(120,504) scale(4.12)"><path d="M3,0L3,0c0,1.7-1.3,3-3,3h0h0c1.7,0,3,1.3,3,3v0v0c0-1.7,1.3-3,3-3h0h0C4.3,3,3,1.7,3,0L3,0z"/></g>
<g transform="translate(144,504) scale(4.12)"><path d="M3,0L3,0c0,1.7-1.3,3-3,3h0h0c1.7,0,3,1.3,3,3v0v0c0-1.7,1.3-3,3-3h0h0C4.3,3,3,1.7,3,0L3,0z"/></g>
<g transform="translate(168,504) scale(4.12)"><path d="M3,0L3,0c0,1.7-1.3,3-3,3h0h0c1.7,0,3,1.3,3,3v0v0c0-1.7,1.3-3,3-3h0h0C4.3,3,3,1.7,3,0L3,0z"/></g>
<g transform="translate(216,504) scale(4.12)"><path d="M3,0L3,0c0,1.7-1.3,3-3,3h0h0c1.7,0,3,1.3,3,3v0v0c0-1.7,1.3-3,3-3h0h0C4.3,3,3,1.7,3,0L3,0z"/></g>
<g transform="translate(240,504) scale(4.12)"><path d="M3,0L3,0c0,1.7-1.3,3-3,3h0h0c1.7,0,3,1.3,3,3v0v0c0-1.7,1.3-3,3-3h0h0C4.3,3,3,1.7,3,0L3,0z"/></g>
<g transform="translate(288,504) scale(4.12)"><path d="M3,0L3,0c0,1.7-1.3,3-3,3h0h0c1.7,0,3,1.3,3,3v0v0c0-1.7,1.3-3,3-3h0h0C4.3,3,3,1.7,3,0L3,0z"/></g>
<g transform="translate(360,504) scale(4.12)"><path d="M3,0L3,0c0,1.7-1.3,3-3,3h0h0c1.7,0,3,1.3,3,3v0v0c0-1.7,1.3-3,3-3h0h0C4.3,3,3,1.7,3,0L3,0z"/></g>
<g transform="translate(384,504) scale(4.12)"><path d="M3,0L3,0c0,1.7-1.3,3-3,3h0h0c1.7,0,3,1.3,3,3v0v0c0-1.7,1.3-3,3-3h0h0C4.3,3,3,1.7,3,0L3,0z"/></g>
<g transform="translate(408,504) scale(4.12)"><path d="M3,0L3,0c0,1.7-1.3,3-3,3h0h0c1.7,0,3,1.3,3,3v0v0c0-1.7,1.3-3,3-3h0h0C4.3,3,3,1.7,3,0L3,0z"/></g>
<g transform="translate(432,504) scale(4.12)"><path d="M3,0L3,0c0,1.7-1.3,3-3,3h0h0c1.7,0,3,1.3,3,3v0v0c0-1.7,1.3-3,3-3h0h0C4.3,3,3,1.7,3,0L3,0z"/></g>
<g transform="translate(456,504) scale(4.12)"><path d="M3,0L3,0c0,1.7-1.3,3-3,3h0h0c1.7,0,3,1.3,3,3v0v0c0-1.7,1.3-3,3-3h0h0C4.3,3,3,1.7,3,0L3,0z"/></g>
<g transform="translate(480,504) scale(4.12)"><path d="M3,0L3,0c0,1.7-1.3,3-3,3h0h0c1.7,0,3,1.3,3,3v0v0c0-1.7,1.3-3,3-3h0h0C4.3,3,3,1.7,3,0L3,0z"/></g>
<g transform="translate(552,504) scale(4.12)"><path d="M3,0L3,0c0,1.7-1.3,3-3,3h0h0c1.7,0,3,1.3,3,3v0v0c0-1.7,1.3-3,3-3h0h0C4.3,3,3,1.7,3,0L3,0z"/></g>
<g transform="translate(576,504) scale(4.12)"><path d="M3,0L3,0c0,1.7-1.3,3-3,3h0h0c1.7,0,3,1.3,3,3v0v0c0-1.7,1.3-3,3-3h0h0C4.3,3,3,1.7,3,0L3,0z"/></g>
<g transform="translate(624,504) scale(4.12)"><path d="M3,0L3,0c0,1.7-1.3,3-3,3h0h0c1.7,0,3,1.3,3,3v0v0c0-1.7,1.3-3,3-3h0h0C4.3,3,3,1.7,3,0L3,0z"/></g>
<g transform="translate(672,504) scale(4.12)"><path d="M3,0L3,0c0,1.7-1.3,3-3,3h0h0c1.7,0,3,1.3,3,3v0v0c0-1.7,1.3-3,3-3h0h0C4.3,3,3,1.7,3,0L3,0z"/></g>
<g transform="translate(696,504) scale(4.12)"><path d="M3,0L3,0c0,1.7-1.3,3-3,3h0h0c1.7,0,3,1.3,3,3v0v0c0-1.7,1.3-3,3-3h0h0C4.3,3,3,1.7,3,0L3,0z"/></g>
<g transform="translate(720,504) scale(4.12)"><path d="M3,0L3,0c0,1.7-1.3,3-3,3h0h0c1.7,0,3,1.3,3,3v0v0c0-1.7,1.3-3,3-3h0h0C4.3,3,3,1.7,3,0L3,0z"/></g>
<g transform="translate(744,504) scale(4.12)"><path d="M3,0L3,0c0,1.7-1.3,3-3,3h0h0c1.7,0,3,1.3,3,3v0v0c0-1.7,1.3-3,3-3h0h0C4.3,3,3,1.7,3,0L3,0z"/></g>
<g transform="translate(768,504) scale(4.12)"><path d="M3,0L3,0c0,1.7-1.3,3-3,3h0h0c1.7,0,3,1.3,3,3v0v0c0-1.7,1.3-3,3-3h0h0C4.3,3,3,1.7,3,0L3,0z"/></g>
<g transform="translate(792,504) scale(4.12)"><path d="M3,0L3,0c0,1.7-1.3,3-3,3h0h0c1.7,0,3,1.3,3,3v0v0c0-1.7,1.3-3,3-3h0h0C4.3,3,3,1.7,3,0L3,0z"/></g>
<g transform="translate(816,504) scale(4.12)"><path d="M3,0L3,0c0,1.7-1.3,3-3,3h0h0c1.7,0,3,1.3,3,3v0v0c0-1.7,1.3-3,3-3h0h0C4.3,3,3,1.7,3,0L3,0z"/></g>
<g transform="translate(72,528) scale(4.12)"><path d="M3,0L3,0c0,1.7-1.3,3-3,3h0h0c1.7,0,3,1.3,3,3v0v0c0-1.7,1.3-3,3-3h0h0C4.3,3,3,1.7,3,0L3,0z"/></g>
<g transform="translate(120,528) scale(4.12)"><path d="M3,0L3,0c0,1.7-1.3,3-3,3h0h0c1.7,0,3,1.3,3,3v0v0c0-1.7,1.3-3,3-3h0h0C4.3,3,3,1.7,3,0L3,0z"/></g>
<g transform="translate(168,528) scale(4.12)"><path d="M3,0L3,0c0,1.7-1.3,3-3,3h0h0c1.7,0,3,1.3,3,3v0v0c0-1.7,1.3-3,3-3h0h0C4.3,3,3,1.7,3,0L3,0z"/></g>
<g transform="translate(192,528) scale(4.12)"><path d="M3,0L3,0c0,1.7-1.3,3-3,3h0h0c1.7,0,3,1.3,3,3v0v0c0-1.7,1.3-3,3-3h0h0C4.3,3,3,1.7,3,0L3,0z"/></g>
<g transform="translate(216,528) scale(4.12)"><path d="M3,0L3,0c0,1.7-1.3,3-3,3h0h0c1.7,0,3,1.3,3,3v0v0c0-1.7,1.3-3,3-3h0h0C4.3,3,3,1.7,3,0L3,0z"/></g>
<g transform="translate(264,528) scale(4.12)"><path d="M3,0L3,0c0,1.7-1.3,3-3,3h0h0c1.7,0,3,1.3,3,3v0v0c0-1.7,1.3-3,3-3h0h0C4.3,3,3,1.7,3,0L3,0z"/></g>
<g transform="translate(288,528) scale(4.12)"><path d="M3,0L3,0c0,1.7-1.3,3-3,3h0h0c1.7,0,3,1.3,3,3v0v0c0-1.7,1.3-3,3-3h0h0C4.3,3,3,1.7,3,0L3,0z"/></g>
<g transform="translate(336,528) scale(4.12)"><path d="M3,0L3,0c0,1.7-1.3,3-3,3h0h0c1.7,0,3,1.3,3,3v0v0c0-1.7,1.3-3,3-3h0h0C4.3,3,3,1.7,3,0L3,0z"/></g>
<g transform="translate(360,528) scale(4.12)"><path d="M3,0L3,0c0,1.7-1.3,3-3,3h0h0c1.7,0,3,1.3,3,3v0v0c0-1.7,1.3-3,3-3h0h0C4.3,3,3,1.7,3,0L3,0z"/></g>
<g transform="translate(384,528) scale(4.12)"><path d="M3,0L3,0c0,1.7-1.3,3-3,3h0h0c1.7,0,3,1.3,3,3v0v0c0-1.7,1.3-3,3-3h0h0C4.3,3,3,1.7,3,0L3,0z"/></g>
<g transform="translate(408,528) scale(4.12)"><path d="M3,0L3,0c0,1.7-1.3,3-3,3h0h0c1.7,0,3,1.3,3,3v0v0c0-1.7,1.3-3,3-3h0h0C4.3,3,3,1.7,3,0L3,0z"/></g>
<g transform="translate(432,528) scale(4.12)"><path d="M3,0L3,0c0,1.7-1.3,3-3,3h0h0c1.7,0,3,1.3,3,3v0v0c0-1.7,1.3-3,3-3h0h0C4.3,3,3,1.7,3,0L3,0z"/></g>
<g transform="translate(480,528) scale(4.12)"><path d="M3,0L3,0c0,1.7-1.3,3-3,3h0h0c1.7,0,3,1.3,3,3v0v0c0-1.7,1.3-3,3-3h0h0C4.3,3,3,1.7,3,0L3,0z"/></g>
<g transform="translate(504,528) scale(4.12)"><path d="M3,0L3,0c0,1.7-1.3,3-3,3h0h0c1.7,0,3,1.3,3,3v0v0c0-1.7,1.3-3,3-3h0h0C4.3,3,3,1.7,3,0L3,0z"/></g>
<g transform="translate(528,528) scale(4.12)"><path d="M3,0L3,0c0,1.7-1.3,3-3,3h0h0c1.7,0,3,1.3,3,3v0v0c0-1.7,1.3-3,3-3h0h0C4.3,3,3,1.7,3,0L3,0z"/></g>
<g transform="translate(600,528) scale(4.12)"><path d="M3,0L3,0c0,1.7-1.3,3-3,3h0h0c1.7,0,3,1.3,3,3v0v0c0-1.7,1.3-3,3-3h0h0C4.3,3,3,1.7,3,0L3,0z"/></g>
<g transform="translate(624,528) scale(4.12)"><path d="M3,0L3,0c0,1.7-1.3,3-3,3h0h0c1.7,0,3,1.3,3,3v0v0c0-1.7,1.3-3,3-3h0h0C4.3,3,3,1.7,3,0L3,0z"/></g>
<g transform="translate(696,528) scale(4.12)"><path d="M3,0L3,0c0,1.7-1.3,3-3,3h0h0c1.7,0,3,1.3,3,3v0v0c0-1.7,1.3-3,3-3h0h0C4.3,3,3,1.7,3,0L3,0z"/></g>
<g transform="translate(720,528) scale(4.12)"><path d="M3,0L3,0c0,1.7-1.3,3-3,3h0h0c1.7,0,3,1.3,3,3v0v0c0-1.7,1.3-3,3-3h0h0C4.3,3,3,1.7,3,0L3,0z"/></g>
<g transform="translate(744,528) scale(4.12)"><path d="M3,0L3,0c0,1.7-1.3,3-3,3h0h0c1.7,0,3,1.3,3,3v0v0c0-1.7,1.3-3,3-3h0h0C4.3,3,3,1.7,3,0L3,0z"/></g>
<g transform="translate(792,528) scale(4.12)"><path d="M3,0L3,0c0,1.7-1.3,3-3,3h0h0c1.7,0,3,1.3,3,3v0v0c0-1.7,1.3-3,3-3h0h0C4.3,3,3,1.7,3,0L3,0z"/></g>
<g transform="translate(816,528) scale(4.12)"><path d="M3,0L3,0c0,1.7-1.3,3-3,3h0h0c1.7,0,3,1.3,3,3v0v0c0-1.7,1.3-3,3-3h0h0C4.3,3,3,1.7,3,0L3,0z"/></g>
<g transform="translate(48,552) scale(4.12)"><path d="M3,0L3,0c0,1.7-1.3,3-3,3h0h0c1.7,0,3,1.3,3,3v0v0c0-1.7,1.3-3,3-3h0h0C4.3,3,3,1.7,3,0L3,0z"/></g>
<g transform="translate(120,552) scale(4.12)"><path d="M3,0L3,0c0,1.7-1.3,3-3,3h0h0c1.7,0,3,1.3,3,3v0v0c0-1.7,1.3-3,3-3h0h0C4.3,3,3,1.7,3,0L3,0z"/></g>
<g transform="translate(240,552) scale(4.12)"><path d="M3,0L3,0c0,1.7-1.3,3-3,3h0h0c1.7,0,3,1.3,3,3v0v0c0-1.7,1.3-3,3-3h0h0C4.3,3,3,1.7,3,0L3,0z"/></g>
<g transform="translate(264,552) scale(4.12)"><path d="M3,0L3,0c0,1.7-1.3,3-3,3h0h0c1.7,0,3,1.3,3,3v0v0c0-1.7,1.3-3,3-3h0h0C4.3,3,3,1.7,3,0L3,0z"/></g>
<g transform="translate(288,552) scale(4.12)"><path d="M3,0L3,0c0,1.7-1.3,3-3,3h0h0c1.7,0,3,1.3,3,3v0v0c0-1.7,1.3-3,3-3h0h0C4.3,3,3,1.7,3,0L3,0z"/></g>
<g transform="translate(312,552) scale(4.12)"><path d="M3,0L3,0c0,1.7-1.3,3-3,3h0h0c1.7,0,3,1.3,3,3v0v0c0-1.7,1.3-3,3-3h0h0C4.3,3,3,1.7,3,0L3,0z"/></g>
<g transform="translate(336,552) scale(4.12)"><path d="M3,0L3,0c0,1.7-1.3,3-3,3h0h0c1.7,0,3,1.3,3,3v0v0c0-1.7,1.3-3,3-3h0h0C4.3,3,3,1.7,3,0L3,0z"/></g>
<g transform="translate(360,552) scale(4.12)"><path d="M3,0L3,0c0,1.7-1.3,3-3,3h0h0c1.7,0,3,1.3,3,3v0v0c0-1.7,1.3-3,3-3h0h0C4.3,3,3,1.7,3,0L3,0z"/></g>
<g transform="translate(384,552) scale(4.12)"><path d="M3,0L3,0c0,1.7-1.3,3-3,3h0h0c1.7,0,3,1.3,3,3v0v0c0-1.7,1.3-3,3-3h0h0C4.3,3,3,1.7,3,0L3,0z"/></g>
<g transform="translate(432,552) scale(4.12)"><path d="M3,0L3,0c0,1.7-1.3,3-3,3h0h0c1.7,0,3,1.3,3,3v0v0c0-1.7,1.3-3,3-3h0h0C4.3,3,3,1.7,3,0L3,0z"/></g>
<g transform="translate(456,552) scale(4.12)"><path d="M3,0L3,0c0,1.7-1.3,3-3,3h0h0c1.7,0,3,1.3,3,3v0v0c0-1.7,1.3-3,3-3h0h0C4.3,3,3,1.7,3,0L3,0z"/></g>
<g transform="translate(480,552) scale(4.12)"><path d="M3,0L3,0c0,1.7-1.3,3-3,3h0h0c1.7,0,3,1.3,3,3v0v0c0-1.7,1.3-3,3-3h0h0C4.3,3,3,1.7,3,0L3,0z"/></g>
<g transform="translate(552,552) scale(4.12)"><path d="M3,0L3,0c0,1.7-1.3,3-3,3h0h0c1.7,0,3,1.3,3,3v0v0c0-1.7,1.3-3,3-3h0h0C4.3,3,3,1.7,3,0L3,0z"/></g>
<g transform="translate(600,552) scale(4.12)"><path d="M3,0L3,0c0,1.7-1.3,3-3,3h0h0c1.7,0,3,1.3,3,3v0v0c0-1.7,1.3-3,3-3h0h0C4.3,3,3,1.7,3,0L3,0z"/></g>
<g transform="translate(672,552) scale(4.12)"><path d="M3,0L3,0c0,1.7-1.3,3-3,3h0h0c1.7,0,3,1.3,3,3v0v0c0-1.7,1.3-3,3-3h0h0C4.3,3,3,1.7,3,0L3,0z"/></g>
<g transform="translate(696,552) scale(4.12)"><path d="M3,0L3,0c0,1.7-1.3,3-3,3h0h0c1.7,0,3,1.3,3,3v0v0c0-1.7,1.3-3,3-3h0h0C4.3,3,3,1.7,3,0L3,0z"/></g>
<g transform="translate(768,552) scale(4.12)"><path d="M3,0L3,0c0,1.7-1.3,3-3,3h0h0c1.7,0,3,1.3,3,3v0v0c0-1.7,1.3-3,3-3h0h0C4.3,3,3,1.7,3,0L3,0z"/></g>
<g transform="translate(816,552) scale(4.12)"><path d="M3,0L3,0c0,1.7-1.3,3-3,3h0h0c1.7,0,3,1.3,3,3v0v0c0-1.7,1.3-3,3-3h0h0C4.3,3,3,1.7,3,0L3,0z"/></g>
<g transform="translate(48,576) scale(4.12)"><path d="M3,0L3,0c0,1.7-1.3,3-3,3h0h0c1.7,0,3,1.3,3,3v0v0c0-1.7,1.3-3,3-3h0h0C4.3,3,3,1.7,3,0L3,0z"/></g>
<g transform="translate(96,576) scale(4.12)"><path d="M3,0L3,0c0,1.7-1.3,3-3,3h0h0c1.7,0,3,1.3,3,3v0v0c0-1.7,1.3-3,3-3h0h0C4.3,3,3,1.7,3,0L3,0z"/></g>
<g transform="translate(144,576) scale(4.12)"><path d="M3,0L3,0c0,1.7-1.3,3-3,3h0h0c1.7,0,3,1.3,3,3v0v0c0-1.7,1.3-3,3-3h0h0C4.3,3,3,1.7,3,0L3,0z"/></g>
<g transform="translate(192,576) scale(4.12)"><path d="M3,0L3,0c0,1.7-1.3,3-3,3h0h0c1.7,0,3,1.3,3,3v0v0c0-1.7,1.3-3,3-3h0h0C4.3,3,3,1.7,3,0L3,0z"/></g>
<g transform="translate(216,576) scale(4.12)"><path d="M3,0L3,0c0,1.7-1.3,3-3,3h0h0c1.7,0,3,1.3,3,3v0v0c0-1.7,1.3-3,3-3h0h0C4.3,3,3,1.7,3,0L3,0z"/></g>
<g transform="translate(240,576) scale(4.12)"><path d="M3,0L3,0c0,1.7-1.3,3-3,3h0h0c1.7,0,3,1.3,3,3v0v0c0-1.7,1.3-3,3-3h0h0C4.3,3,3,1.7,3,0L3,0z"/></g>
<g transform="translate(288,576) scale(4.12)"><path d="M3,0L3,0c0,1.7-1.3,3-3,3h0h0c1.7,0,3,1.3,3,3v0v0c0-1.7,1.3-3,3-3h0h0C4.3,3,3,1.7,3,0L3,0z"/></g>
<g transform="translate(360,576) scale(4.12)"><path d="M3,0L3,0c0,1.7-1.3,3-3,3h0h0c1.7,0,3,1.3,3,3v0v0c0-1.7,1.3-3,3-3h0h0C4.3,3,3,1.7,3,0L3,0z"/></g>
<g transform="translate(384,576) scale(4.12)"><path d="M3,0L3,0c0,1.7-1.3,3-3,3h0h0c1.7,0,3,1.3,3,3v0v0c0-1.7,1.3-3,3-3h0h0C4.3,3,3,1.7,3,0L3,0z"/></g>
<g transform="translate(408,576) scale(4.12)"><path d="M3,0L3,0c0,1.7-1.3,3-3,3h0h0c1.7,0,3,1.3,3,3v0v0c0-1.7,1.3-3,3-3h0h0C4.3,3,3,1.7,3,0L3,0z"/></g>
<g transform="translate(432,576) scale(4.12)"><path d="M3,0L3,0c0,1.7-1.3,3-3,3h0h0c1.7,0,3,1.3,3,3v0v0c0-1.7,1.3-3,3-3h0h0C4.3,3,3,1.7,3,0L3,0z"/></g>
<g transform="translate(456,576) scale(4.12)"><path d="M3,0L3,0c0,1.7-1.3,3-3,3h0h0c1.7,0,3,1.3,3,3v0v0c0-1.7,1.3-3,3-3h0h0C4.3,3,3,1.7,3,0L3,0z"/></g>
<g transform="translate(528,576) scale(4.12)"><path d="M3,0L3,0c0,1.7-1.3,3-3,3h0h0c1.7,0,3,1.3,3,3v0v0c0-1.7,1.3-3,3-3h0h0C4.3,3,3,1.7,3,0L3,0z"/></g>
<g transform="translate(576,576) scale(4.12)"><path d="M3,0L3,0c0,1.7-1.3,3-3,3h0h0c1.7,0,3,1.3,3,3v0v0c0-1.7,1.3-3,3-3h0h0C4.3,3,3,1.7,3,0L3,0z"/></g>
<g transform="translate(648,576) scale(4.12)"><path d="M3,0L3,0c0,1.7-1.3,3-3,3h0h0c1.7,0,3,1.3,3,3v0v0c0-1.7,1.3-3,3-3h0h0C4.3,3,3,1.7,3,0L3,0z"/></g>
<g transform="translate(744,576) scale(4.12)"><path d="M3,0L3,0c0,1.7-1.3,3-3,3h0h0c1.7,0,3,1.3,3,3v0v0c0-1.7,1.3-3,3-3h0h0C4.3,3,3,1.7,3,0L3,0z"/></g>
<g transform="translate(768,576) scale(4.12)"><path d="M3,0L3,0c0,1.7-1.3,3-3,3h0h0c1.7,0,3,1.3,3,3v0v0c0-1.7,1.3-3,3-3h0h0C4.3,3,3,1.7,3,0L3,0z"/></g>
<g transform="translate(792,576) scale(4.12)"><path d="M3,0L3,0c0,1.7-1.3,3-3,3h0h0c1.7,0,3,1.3,3,3v0v0c0-1.7,1.3-3,3-3h0h0C4.3,3,3,1.7,3,0L3,0z"/></g>
<g transform="translate(48,600) scale(4.12)"><path d="M3,0L3,0c0,1.7-1.3,3-3,3h0h0c1.7,0,3,1.3,3,3v0v0c0-1.7,1.3-3,3-3h0h0C4.3,3,3,1.7,3,0L3,0z"/></g>
<g transform="translate(144,600) scale(4.12)"><path d="M3,0L3,0c0,1.7-1.3,3-3,3h0h0c1.7,0,3,1.3,3,3v0v0c0-1.7,1.3-3,3-3h0h0C4.3,3,3,1.7,3,0L3,0z"/></g>
<g transform="translate(168,600) scale(4.12)"><path d="M3,0L3,0c0,1.7-1.3,3-3,3h0h0c1.7,0,3,1.3,3,3v0v0c0-1.7,1.3-3,3-3h0h0C4.3,3,3,1.7,3,0L3,0z"/></g>
<g transform="translate(264,600) scale(4.12)"><path d="M3,0L3,0c0,1.7-1.3,3-3,3h0h0c1.7,0,3,1.3,3,3v0v0c0-1.7,1.3-3,3-3h0h0C4.3,3,3,1.7,3,0L3,0z"/></g>
<g transform="translate(312,600) scale(4.12)"><path d="M3,0L3,0c0,1.7-1.3,3-3,3h0h0c1.7,0,3,1.3,3,3v0v0c0-1.7,1.3-3,3-3h0h0C4.3,3,3,1.7,3,0L3,0z"/></g>
<g transform="translate(336,600) scale(4.12)"><path d="M3,0L3,0c0,1.7-1.3,3-3,3h0h0c1.7,0,3,1.3,3,3v0v0c0-1.7,1.3-3,3-3h0h0C4.3,3,3,1.7,3,0L3,0z"/></g>
<g transform="translate(408,600) scale(4.12)"><path d="M3,0L3,0c0,1.7-1.3,3-3,3h0h0c1.7,0,3,1.3,3,3v0v0c0-1.7,1.3-3,3-3h0h0C4.3,3,3,1.7,3,0L3,0z"/></g>
<g transform="translate(456,600) scale(4.12)"><path d="M3,0L3,0c0,1.7-1.3,3-3,3h0h0c1.7,0,3,1.3,3,3v0v0c0-1.7,1.3-3,3-3h0h0C4.3,3,3,1.7,3,0L3,0z"/></g>
<g transform="translate(480,600) scale(4.12)"><path d="M3,0L3,0c0,1.7-1.3,3-3,3h0h0c1.7,0,3,1.3,3,3v0v0c0-1.7,1.3-3,3-3h0h0C4.3,3,3,1.7,3,0L3,0z"/></g>
<g transform="translate(552,600) scale(4.12)"><path d="M3,0L3,0c0,1.7-1.3,3-3,3h0h0c1.7,0,3,1.3,3,3v0v0c0-1.7,1.3-3,3-3h0h0C4.3,3,3,1.7,3,0L3,0z"/></g>
<g transform="translate(576,600) scale(4.12)"><path d="M3,0L3,0c0,1.7-1.3,3-3,3h0h0c1.7,0,3,1.3,3,3v0v0c0-1.7,1.3-3,3-3h0h0C4.3,3,3,1.7,3,0L3,0z"/></g>
<g transform="translate(624,600) scale(4.12)"><path d="M3,0L3,0c0,1.7-1.3,3-3,3h0h0c1.7,0,3,1.3,3,3v0v0c0-1.7,1.3-3,3-3h0h0C4.3,3,3,1.7,3,0L3,0z"/></g>
<g transform="translate(696,600) scale(4.12)"><path d="M3,0L3,0c0,1.7-1.3,3-3,3h0h0c1.7,0,3,1.3,3,3v0v0c0-1.7,1.3-3,3-3h0h0C4.3,3,3,1.7,3,0L3,0z"/></g>
<g transform="translate(744,600) scale(4.12)"><path d="M3,0L3,0c0,1.7-1.3,3-3,3h0h0c1.7,0,3,1.3,3,3v0v0c0-1.7,1.3-3,3-3h0h0C4.3,3,3,1.7,3,0L3,0z"/></g>
<g transform="translate(768,600) scale(4.12)"><path d="M3,0L3,0c0,1.7-1.3,3-3,3h0h0c1.7,0,3,1.3,3,3v0v0c0-1.7,1.3-3,3-3h0h0C4.3,3,3,1.7,3,0L3,0z"/></g>
<g transform="translate(48,624) scale(4.12)"><path d="M3,0L3,0c0,1.7-1.3,3-3,3h0h0c1.7,0,3,1.3,3,3v0v0c0-1.7,1.3-3,3-3h0h0C4.3,3,3,1.7,3,0L3,0z"/></g>
<g transform="translate(144,624) scale(4.12)"><path d="M3,0L3,0c0,1.7-1.3,3-3,3h0h0c1.7,0,3,1.3,3,3v0v0c0-1.7,1.3-3,3-3h0h0C4.3,3,3,1.7,3,0L3,0z"/></g>
<g transform="translate(192,624) scale(4.12)"><path d="M3,0L3,0c0,1.7-1.3,3-3,3h0h0c1.7,0,3,1.3,3,3v0v0c0-1.7,1.3-3,3-3h0h0C4.3,3,3,1.7,3,0L3,0z"/></g>
<g transform="translate(216,624) scale(4.12)"><path d="M3,0L3,0c0,1.7-1.3,3-3,3h0h0c1.7,0,3,1.3,3,3v0v0c0-1.7,1.3-3,3-3h0h0C4.3,3,3,1.7,3,0L3,0z"/></g>
<g transform="translate(240,624) scale(4.12)"><path d="M3,0L3,0c0,1.7-1.3,3-3,3h0h0c1.7,0,3,1.3,3,3v0v0c0-1.7,1.3-3,3-3h0h0C4.3,3,3,1.7,3,0L3,0z"/></g>
<g transform="translate(312,624) scale(4.12)"><path d="M3,0L3,0c0,1.7-1.3,3-3,3h0h0c1.7,0,3,1.3,3,3v0v0c0-1.7,1.3-3,3-3h0h0C4.3,3,3,1.7,3,0L3,0z"/></g>
<g transform="translate(384,624) scale(4.12)"><path d="M3,0L3,0c0,1.7-1.3,3-3,3h0h0c1.7,0,3,1.3,3,3v0v0c0-1.7,1.3-3,3-3h0h0C4.3,3,3,1.7,3,0L3,0z"/></g>
<g transform="translate(432,624) scale(4.12)"><path d="M3,0L3,0c0,1.7-1.3,3-3,3h0h0c1.7,0,3,1.3,3,3v0v0c0-1.7,1.3-3,3-3h0h0C4.3,3,3,1.7,3,0L3,0z"/></g>
<g transform="translate(576,624) scale(4.12)"><path d="M3,0L3,0c0,1.7-1.3,3-3,3h0h0c1.7,0,3,1.3,3,3v0v0c0-1.7,1.3-3,3-3h0h0C4.3,3,3,1.7,3,0L3,0z"/></g>
<g transform="translate(624,624) scale(4.12)"><path d="M3,0L3,0c0,1.7-1.3,3-3,3h0h0c1.7,0,3,1.3,3,3v0v0c0-1.7,1.3-3,3-3h0h0C4.3,3,3,1.7,3,0L3,0z"/></g>
<g transform="translate(648,624) scale(4.12)"><path d="M3,0L3,0c0,1.7-1.3,3-3,3h0h0c1.7,0,3,1.3,3,3v0v0c0-1.7,1.3-3,3-3h0h0C4.3,3,3,1.7,3,0L3,0z"/></g>
<g transform="translate(672,624) scale(4.12)"><path d="M3,0L3,0c0,1.7-1.3,3-3,3h0h0c1.7,0,3,1.3,3,3v0v0c0-1.7,1.3-3,3-3h0h0C4.3,3,3,1.7,3,0L3,0z"/></g>
<g transform="translate(696,624) scale(4.12)"><path d="M3,0L3,0c0,1.7-1.3,3-3,3h0h0c1.7,0,3,1.3,3,3v0v0c0-1.7,1.3-3,3-3h0h0C4.3,3,3,1.7,3,0L3,0z"/></g>
<g transform="translate(720,624) scale(4.12)"><path d="M3,0L3,0c0,1.7-1.3,3-3,3h0h0c1.7,0,3,1.3,3,3v0v0c0-1.7,1.3-3,3-3h0h0C4.3,3,3,1.7,3,0L3,0z"/></g>
<g transform="translate(744,624) scale(4.12)"><path d="M3,0L3,0c0,1.7-1.3,3-3,3h0h0c1.7,0,3,1.3,3,3v0v0c0-1.7,1.3-3,3-3h0h0C4.3,3,3,1.7,3,0L3,0z"/></g>
<g transform="translate(816,624) scale(4.12)"><path d="M3,0L3,0c0,1.7-1.3,3-3,3h0h0c1.7,0,3,1.3,3,3v0v0c0-1.7,1.3-3,3-3h0h0C4.3,3,3,1.7,3,0L3,0z"/></g>
<g transform="translate(240,648) scale(4.12)"><path d="M3,0L3,0c0,1.7-1.3,3-3,3h0h0c1.7,0,3,1.3,3,3v0v0c0-1.7,1.3-3,3-3h0h0C4.3,3,3,1.7,3,0L3,0z"/></g>
<g transform="translate(288,648) scale(4.12)"><path d="M3,0L3,0c0,1.7-1.3,3-3,3h0h0c1.7,0,3,1.3,3,3v0v0c0-1.7,1.3-3,3-3h0h0C4.3,3,3,1.7,3,0L3,0z"/></g>
<g transform="translate(312,648) scale(4.12)"><path d="M3,0L3,0c0,1.7-1.3,3-3,3h0h0c1.7,0,3,1.3,3,3v0v0c0-1.7,1.3-3,3-3h0h0C4.3,3,3,1.7,3,0L3,0z"/></g>
<g transform="translate(408,648) scale(4.12)"><path d="M3,0L3,0c0,1.7-1.3,3-3,3h0h0c1.7,0,3,1.3,3,3v0v0c0-1.7,1.3-3,3-3h0h0C4.3,3,3,1.7,3,0L3,0z"/></g>
<g transform="translate(432,648) scale(4.12)"><path d="M3,0L3,0c0,1.7-1.3,3-3,3h0h0c1.7,0,3,1.3,3,3v0v0c0-1.7,1.3-3,3-3h0h0C4.3,3,3,1.7,3,0L3,0z"/></g>
<g transform="translate(504,648) scale(4.12)"><path d="M3,0L3,0c0,1.7-1.3,3-3,3h0h0c1.7,0,3,1.3,3,3v0v0c0-1.7,1.3-3,3-3h0h0C4.3,3,3,1.7,3,0L3,0z"/></g>
<g transform="translate(528,648) scale(4.12)"><path d="M3,0L3,0c0,1.7-1.3,3-3,3h0h0c1.7,0,3,1.3,3,3v0v0c0-1.7,1.3-3,3-3h0h0C4.3,3,3,1.7,3,0L3,0z"/></g>
<g transform="translate(600,648) scale(4.12)"><path d="M3,0L3,0c0,1.7-1.3,3-3,3h0h0c1.7,0,3,1.3,3,3v0v0c0-1.7,1.3-3,3-3h0h0C4.3,3,3,1.7,3,0L3,0z"/></g>
<g transform="translate(624,648) scale(4.12)"><path d="M3,0L3,0c0,1.7-1.3,3-3,3h0h0c1.7,0,3,1.3,3,3v0v0c0-1.7,1.3-3,3-3h0h0C4.3,3,3,1.7,3,0L3,0z"/></g>
<g transform="translate(720,648) scale(4.12)"><path d="M3,0L3,0c0,1.7-1.3,3-3,3h0h0c1.7,0,3,1.3,3,3v0v0c0-1.7,1.3-3,3-3h0h0C4.3,3,3,1.7,3,0L3,0z"/></g>
<g transform="translate(768,648) scale(4.12)"><path d="M3,0L3,0c0,1.7-1.3,3-3,3h0h0c1.7,0,3,1.3,3,3v0v0c0-1.7,1.3-3,3-3h0h0C4.3,3,3,1.7,3,0L3,0z"/></g>
<g transform="translate(816,648) scale(4.12)"><path d="M3,0L3,0c0,1.7-1.3,3-3,3h0h0c1.7,0,3,1.3,3,3v0v0c0-1.7,1.3-3,3-3h0h0C4.3,3,3,1.7,3,0L3,0z"/></g>
<g transform="translate(240,672) scale(4.12)"><path d="M3,0L3,0c0,1.7-1.3,3-3,3h0h0c1.7,0,3,1.3,3,3v0v0c0-1.7,1.3-3,3-3h0h0C4.3,3,3,1.7,3,0L3,0z"/></g>
<g transform="translate(264,672) scale(4.12)"><path d="M3,0L3,0c0,1.7-1.3,3-3,3h0h0c1.7,0,3,1.3,3,3v0v0c0-1.7,1.3-3,3-3h0h0C4.3,3,3,1.7,3,0L3,0z"/></g>
<g transform="translate(288,672) scale(4.12)"><path d="M3,0L3,0c0,1.7-1.3,3-3,3h0h0c1.7,0,3,1.3,3,3v0v0c0-1.7,1.3-3,3-3h0h0C4.3,3,3,1.7,3,0L3,0z"/></g>
<g transform="translate(312,672) scale(4.12)"><path d="M3,0L3,0c0,1.7-1.3,3-3,3h0h0c1.7,0,3,1.3,3,3v0v0c0-1.7,1.3-3,3-3h0h0C4.3,3,3,1.7,3,0L3,0z"/></g>
<g transform="translate(360,672) scale(4.12)"><path d="M3,0L3,0c0,1.7-1.3,3-3,3h0h0c1.7,0,3,1.3,3,3v0v0c0-1.7,1.3-3,3-3h0h0C4.3,3,3,1.7,3,0L3,0z"/></g>
<g transform="translate(576,672) scale(4.12)"><path d="M3,0L3,0c0,1.7-1.3,3-3,3h0h0c1.7,0,3,1.3,3,3v0v0c0-1.7,1.3-3,3-3h0h0C4.3,3,3,1.7,3,0L3,0z"/></g>
<g transform="translate(600,672) scale(4.12)"><path d="M3,0L3,0c0,1.7-1.3,3-3,3h0h0c1.7,0,3,1.3,3,3v0v0c0-1.7,1.3-3,3-3h0h0C4.3,3,3,1.7,3,0L3,0z"/></g>
<g transform="translate(624,672) scale(4.12)"><path d="M3,0L3,0c0,1.7-1.3,3-3,3h0h0c1.7,0,3,1.3,3,3v0v0c0-1.7,1.3-3,3-3h0h0C4.3,3,3,1.7,3,0L3,0z"/></g>
<g transform="translate(672,672) scale(4.12)"><path d="M3,0L3,0c0,1.7-1.3,3-3,3h0h0c1.7,0,3,1.3,3,3v0v0c0-1.7,1.3-3,3-3h0h0C4.3,3,3,1.7,3,0L3,0z"/></g>
<g transform="translate(720,672) scale(4.12)"><path d="M3,0L3,0c0,1.7-1.3,3-3,3h0h0c1.7,0,3,1.3,3,3v0v0c0-1.7,1.3-3,3-3h0h0C4.3,3,3,1.7,3,0L3,0z"/></g>
<g transform="translate(768,672) scale(4.12)"><path d="M3,0L3,0c0,1.7-1.3,3-3,3h0h0c1.7,0,3,1.3,3,3v0v0c0-1.7,1.3-3,3-3h0h0C4.3,3,3,1.7,3,0L3,0z"/></g>
<g transform="translate(792,672) scale(4.12)"><path d="M3,0L3,0c0,1.7-1.3,3-3,3h0h0c1.7,0,3,1.3,3,3v0v0c0-1.7,1.3-3,3-3h0h0C4.3,3,3,1.7,3,0L3,0z"/></g>
<g transform="translate(240,696) scale(4.12)"><path d="M3,0L3,0c0,1.7-1.3,3-3,3h0h0c1.7,0,3,1.3,3,3v0v0c0-1.7,1.3-3,3-3h0h0C4.3,3,3,1.7,3,0L3,0z"/></g>
<g transform="translate(288,696) scale(4.12)"><path d="M3,0L3,0c0,1.7-1.3,3-3,3h0h0c1.7,0,3,1.3,3,3v0v0c0-1.7,1.3-3,3-3h0h0C4.3,3,3,1.7,3,0L3,0z"/></g>
<g transform="translate(432,696) scale(4.12)"><path d="M3,0L3,0c0,1.7-1.3,3-3,3h0h0c1.7,0,3,1.3,3,3v0v0c0-1.7,1.3-3,3-3h0h0C4.3,3,3,1.7,3,0L3,0z"/></g>
<g transform="translate(480,696) scale(4.12)"><path d="M3,0L3,0c0,1.7-1.3,3-3,3h0h0c1.7,0,3,1.3,3,3v0v0c0-1.7,1.3-3,3-3h0h0C4.3,3,3,1.7,3,0L3,0z"/></g>
<g transform="translate(528,696) scale(4.12)"><path d="M3,0L3,0c0,1.7-1.3,3-3,3h0h0c1.7,0,3,1.3,3,3v0v0c0-1.7,1.3-3,3-3h0h0C4.3,3,3,1.7,3,0L3,0z"/></g>
<g transform="translate(552,696) scale(4.12)"><path d="M3,0L3,0c0,1.7-1.3,3-3,3h0h0c1.7,0,3,1.3,3,3v0v0c0-1.7,1.3-3,3-3h0h0C4.3,3,3,1.7,3,0L3,0z"/></g>
<g transform="translate(576,696) scale(4.12)"><path d="M3,0L3,0c0,1.7-1.3,3-3,3h0h0c1.7,0,3,1.3,3,3v0v0c0-1.7,1.3-3,3-3h0h0C4.3,3,3,1.7,3,0L3,0z"/></g>
<g transform="translate(600,696) scale(4.12)"><path d="M3,0L3,0c0,1.7-1.3,3-3,3h0h0c1.7,0,3,1.3,3,3v0v0c0-1.7,1.3-3,3-3h0h0C4.3,3,3,1.7,3,0L3,0z"/></g>
<g transform="translate(624,696) scale(4.12)"><path d="M3,0L3,0c0,1.7-1.3,3-3,3h0h0c1.7,0,3,1.3,3,3v0v0c0-1.7,1.3-3,3-3h0h0C4.3,3,3,1.7,3,0L3,0z"/></g>
<g transform="translate(720,696) scale(4.12)"><path d="M3,0L3,0c0,1.7-1.3,3-3,3h0h0c1.7,0,3,1.3,3,3v0v0c0-1.7,1.3-3,3-3h0h0C4.3,3,3,1.7,3,0L3,0z"/></g>
<g transform="translate(744,696) scale(4.12)"><path d="M3,0L3,0c0,1.7-1.3,3-3,3h0h0c1.7,0,3,1.3,3,3v0v0c0-1.7,1.3-3,3-3h0h0C4.3,3,3,1.7,3,0L3,0z"/></g>
<g transform="translate(768,696) scale(4.12)"><path d="M3,0L3,0c0,1.7-1.3,3-3,3h0h0c1.7,0,3,1.3,3,3v0v0c0-1.7,1.3-3,3-3h0h0C4.3,3,3,1.7,3,0L3,0z"/></g>
<g transform="translate(792,696) scale(4.12)"><path d="M3,0L3,0c0,1.7-1.3,3-3,3h0h0c1.7,0,3,1.3,3,3v0v0c0-1.7,1.3-3,3-3h0h0C4.3,3,3,1.7,3,0L3,0z"/></g>
<g transform="translate(240,720) scale(4.12)"><path d="M3,0L3,0c0,1.7-1.3,3-3,3h0h0c1.7,0,3,1.3,3,3v0v0c0-1.7,1.3-3,3-3h0h0C4.3,3,3,1.7,3,0L3,0z"/></g>
<g transform="translate(384,720) scale(4.12)"><path d="M3,0L3,0c0,1.7-1.3,3-3,3h0h0c1.7,0,3,1.3,3,3v0v0c0-1.7,1.3-3,3-3h0h0C4.3,3,3,1.7,3,0L3,0z"/></g>
<g transform="translate(408,720) scale(4.12)"><path d="M3,0L3,0c0,1.7-1.3,3-3,3h0h0c1.7,0,3,1.3,3,3v0v0c0-1.7,1.3-3,3-3h0h0C4.3,3,3,1.7,3,0L3,0z"/></g>
<g transform="translate(432,720) scale(4.12)"><path d="M3,0L3,0c0,1.7-1.3,3-3,3h0h0c1.7,0,3,1.3,3,3v0v0c0-1.7,1.3-3,3-3h0h0C4.3,3,3,1.7,3,0L3,0z"/></g>
<g transform="translate(456,720) scale(4.12)"><path d="M3,0L3,0c0,1.7-1.3,3-3,3h0h0c1.7,0,3,1.3,3,3v0v0c0-1.7,1.3-3,3-3h0h0C4.3,3,3,1.7,3,0L3,0z"/></g>
<g transform="translate(480,720) scale(4.12)"><path d="M3,0L3,0c0,1.7-1.3,3-3,3h0h0c1.7,0,3,1.3,3,3v0v0c0-1.7,1.3-3,3-3h0h0C4.3,3,3,1.7,3,0L3,0z"/></g>
<g transform="translate(552,720) scale(4.12)"><path d="M3,0L3,0c0,1.7-1.3,3-3,3h0h0c1.7,0,3,1.3,3,3v0v0c0-1.7,1.3-3,3-3h0h0C4.3,3,3,1.7,3,0L3,0z"/></g>
<g transform="translate(624,720) scale(4.12)"><path d="M3,0L3,0c0,1.7-1.3,3-3,3h0h0c1.7,0,3,1.3,3,3v0v0c0-1.7,1.3-3,3-3h0h0C4.3,3,3,1.7,3,0L3,0z"/></g>
<g transform="translate(648,720) scale(4.12)"><path d="M3,0L3,0c0,1.7-1.3,3-3,3h0h0c1.7,0,3,1.3,3,3v0v0c0-1.7,1.3-3,3-3h0h0C4.3,3,3,1.7,3,0L3,0z"/></g>
<g transform="translate(672,720) scale(4.12)"><path d="M3,0L3,0c0,1.7-1.3,3-3,3h0h0c1.7,0,3,1.3,3,3v0v0c0-1.7,1.3-3,3-3h0h0C4.3,3,3,1.7,3,0L3,0z"/></g>
<g transform="translate(696,720) scale(4.12)"><path d="M3,0L3,0c0,1.7-1.3,3-3,3h0h0c1.7,0,3,1.3,3,3v0v0c0-1.7,1.3-3,3-3h0h0C4.3,3,3,1.7,3,0L3,0z"/></g>
<g transform="translate(720,720) scale(4.12)"><path d="M3,0L3,0c0,1.7-1.3,3-3,3h0h0c1.7,0,3,1.3,3,3v0v0c0-1.7,1.3-3,3-3h0h0C4.3,3,3,1.7,3,0L3,0z"/></g>
<g transform="translate(744,720) scale(4.12)"><path d="M3,0L3,0c0,1.7-1.3,3-3,3h0h0c1.7,0,3,1.3,3,3v0v0c0-1.7,1.3-3,3-3h0h0C4.3,3,3,1.7,3,0L3,0z"/></g>
<g transform="translate(816,720) scale(4.12)"><path d="M3,0L3,0c0,1.7-1.3,3-3,3h0h0c1.7,0,3,1.3,3,3v0v0c0-1.7,1.3-3,3-3h0h0C4.3,3,3,1.7,3,0L3,0z"/></g>
<g transform="translate(240,744) scale(4.12)"><path d="M3,0L3,0c0,1.7-1.3,3-3,3h0h0c1.7,0,3,1.3,3,3v0v0c0-1.7,1.3-3,3-3h0h0C4.3,3,3,1.7,3,0L3,0z"/></g>
<g transform="translate(264,744) scale(4.12)"><path d="M3,0L3,0c0,1.7-1.3,3-3,3h0h0c1.7,0,3,1.3,3,3v0v0c0-1.7,1.3-3,3-3h0h0C4.3,3,3,1.7,3,0L3,0z"/></g>
<g transform="translate(288,744) scale(4.12)"><path d="M3,0L3,0c0,1.7-1.3,3-3,3h0h0c1.7,0,3,1.3,3,3v0v0c0-1.7,1.3-3,3-3h0h0C4.3,3,3,1.7,3,0L3,0z"/></g>
<g transform="translate(384,744) scale(4.12)"><path d="M3,0L3,0c0,1.7-1.3,3-3,3h0h0c1.7,0,3,1.3,3,3v0v0c0-1.7,1.3-3,3-3h0h0C4.3,3,3,1.7,3,0L3,0z"/></g>
<g transform="translate(432,744) scale(4.12)"><path d="M3,0L3,0c0,1.7-1.3,3-3,3h0h0c1.7,0,3,1.3,3,3v0v0c0-1.7,1.3-3,3-3h0h0C4.3,3,3,1.7,3,0L3,0z"/></g>
<g transform="translate(456,744) scale(4.12)"><path d="M3,0L3,0c0,1.7-1.3,3-3,3h0h0c1.7,0,3,1.3,3,3v0v0c0-1.7,1.3-3,3-3h0h0C4.3,3,3,1.7,3,0L3,0z"/></g>
<g transform="translate(528,744) scale(4.12)"><path d="M3,0L3,0c0,1.7-1.3,3-3,3h0h0c1.7,0,3,1.3,3,3v0v0c0-1.7,1.3-3,3-3h0h0C4.3,3,3,1.7,3,0L3,0z"/></g>
<g transform="translate(648,744) scale(4.12)"><path d="M3,0L3,0c0,1.7-1.3,3-3,3h0h0c1.7,0,3,1.3,3,3v0v0c0-1.7,1.3-3,3-3h0h0C4.3,3,3,1.7,3,0L3,0z"/></g>
<g transform="translate(720,744) scale(4.12)"><path d="M3,0L3,0c0,1.7-1.3,3-3,3h0h0c1.7,0,3,1.3,3,3v0v0c0-1.7,1.3-3,3-3h0h0C4.3,3,3,1.7,3,0L3,0z"/></g>
<g transform="translate(816,744) scale(4.12)"><path d="M3,0L3,0c0,1.7-1.3,3-3,3h0h0c1.7,0,3,1.3,3,3v0v0c0-1.7,1.3-3,3-3h0h0C4.3,3,3,1.7,3,0L3,0z"/></g>
<g transform="translate(240,768) scale(4.12)"><path d="M3,0L3,0c0,1.7-1.3,3-3,3h0h0c1.7,0,3,1.3,3,3v0v0c0-1.7,1.3-3,3-3h0h0C4.3,3,3,1.7,3,0L3,0z"/></g>
<g transform="translate(264,768) scale(4.12)"><path d="M3,0L3,0c0,1.7-1.3,3-3,3h0h0c1.7,0,3,1.3,3,3v0v0c0-1.7,1.3-3,3-3h0h0C4.3,3,3,1.7,3,0L3,0z"/></g>
<g transform="translate(312,768) scale(4.12)"><path d="M3,0L3,0c0,1.7-1.3,3-3,3h0h0c1.7,0,3,1.3,3,3v0v0c0-1.7,1.3-3,3-3h0h0C4.3,3,3,1.7,3,0L3,0z"/></g>
<g transform="translate(336,768) scale(4.12)"><path d="M3,0L3,0c0,1.7-1.3,3-3,3h0h0c1.7,0,3,1.3,3,3v0v0c0-1.7,1.3-3,3-3h0h0C4.3,3,3,1.7,3,0L3,0z"/></g>
<g transform="translate(360,768) scale(4.12)"><path d="M3,0L3,0c0,1.7-1.3,3-3,3h0h0c1.7,0,3,1.3,3,3v0v0c0-1.7,1.3-3,3-3h0h0C4.3,3,3,1.7,3,0L3,0z"/></g>
<g transform="translate(384,768) scale(4.12)"><path d="M3,0L3,0c0,1.7-1.3,3-3,3h0h0c1.7,0,3,1.3,3,3v0v0c0-1.7,1.3-3,3-3h0h0C4.3,3,3,1.7,3,0L3,0z"/></g>
<g transform="translate(432,768) scale(4.12)"><path d="M3,0L3,0c0,1.7-1.3,3-3,3h0h0c1.7,0,3,1.3,3,3v0v0c0-1.7,1.3-3,3-3h0h0C4.3,3,3,1.7,3,0L3,0z"/></g>
<g transform="translate(504,768) scale(4.12)"><path d="M3,0L3,0c0,1.7-1.3,3-3,3h0h0c1.7,0,3,1.3,3,3v0v0c0-1.7,1.3-3,3-3h0h0C4.3,3,3,1.7,3,0L3,0z"/></g>
<g transform="translate(552,768) scale(4.12)"><path d="M3,0L3,0c0,1.7-1.3,3-3,3h0h0c1.7,0,3,1.3,3,3v0v0c0-1.7,1.3-3,3-3h0h0C4.3,3,3,1.7,3,0L3,0z"/></g>
<g transform="translate(624,768) scale(4.12)"><path d="M3,0L3,0c0,1.7-1.3,3-3,3h0h0c1.7,0,3,1.3,3,3v0v0c0-1.7,1.3-3,3-3h0h0C4.3,3,3,1.7,3,0L3,0z"/></g>
<g transform="translate(648,768) scale(4.12)"><path d="M3,0L3,0c0,1.7-1.3,3-3,3h0h0c1.7,0,3,1.3,3,3v0v0c0-1.7,1.3-3,3-3h0h0C4.3,3,3,1.7,3,0L3,0z"/></g>
<g transform="translate(672,768) scale(4.12)"><path d="M3,0L3,0c0,1.7-1.3,3-3,3h0h0c1.7,0,3,1.3,3,3v0v0c0-1.7,1.3-3,3-3h0h0C4.3,3,3,1.7,3,0L3,0z"/></g>
<g transform="translate(696,768) scale(4.12)"><path d="M3,0L3,0c0,1.7-1.3,3-3,3h0h0c1.7,0,3,1.3,3,3v0v0c0-1.7,1.3-3,3-3h0h0C4.3,3,3,1.7,3,0L3,0z"/></g>
<g transform="translate(240,792) scale(4.12)"><path d="M3,0L3,0c0,1.7-1.3,3-3,3h0h0c1.7,0,3,1.3,3,3v0v0c0-1.7,1.3-3,3-3h0h0C4.3,3,3,1.7,3,0L3,0z"/></g>
<g transform="translate(336,792) scale(4.12)"><path d="M3,0L3,0c0,1.7-1.3,3-3,3h0h0c1.7,0,3,1.3,3,3v0v0c0-1.7,1.3-3,3-3h0h0C4.3,3,3,1.7,3,0L3,0z"/></g>
<g transform="translate(408,792) scale(4.12)"><path d="M3,0L3,0c0,1.7-1.3,3-3,3h0h0c1.7,0,3,1.3,3,3v0v0c0-1.7,1.3-3,3-3h0h0C4.3,3,3,1.7,3,0L3,0z"/></g>
<g transform="translate(432,792) scale(4.12)"><path d="M3,0L3,0c0,1.7-1.3,3-3,3h0h0c1.7,0,3,1.3,3,3v0v0c0-1.7,1.3-3,3-3h0h0C4.3,3,3,1.7,3,0L3,0z"/></g>
<g transform="translate(480,792) scale(4.12)"><path d="M3,0L3,0c0,1.7-1.3,3-3,3h0h0c1.7,0,3,1.3,3,3v0v0c0-1.7,1.3-3,3-3h0h0C4.3,3,3,1.7,3,0L3,0z"/></g>
<g transform="translate(504,792) scale(4.12)"><path d="M3,0L3,0c0,1.7-1.3,3-3,3h0h0c1.7,0,3,1.3,3,3v0v0c0-1.7,1.3-3,3-3h0h0C4.3,3,3,1.7,3,0L3,0z"/></g>
<g transform="translate(528,792) scale(4.12)"><path d="M3,0L3,0c0,1.7-1.3,3-3,3h0h0c1.7,0,3,1.3,3,3v0v0c0-1.7,1.3-3,3-3h0h0C4.3,3,3,1.7,3,0L3,0z"/></g>
<g transform="translate(552,792) scale(4.12)"><path d="M3,0L3,0c0,1.7-1.3,3-3,3h0h0c1.7,0,3,1.3,3,3v0v0c0-1.7,1.3-3,3-3h0h0C4.3,3,3,1.7,3,0L3,0z"/></g>
<g transform="translate(576,792) scale(4.12)"><path d="M3,0L3,0c0,1.7-1.3,3-3,3h0h0c1.7,0,3,1.3,3,3v0v0c0-1.7,1.3-3,3-3h0h0C4.3,3,3,1.7,3,0L3,0z"/></g>
<g transform="translate(648,792) scale(4.12)"><path d="M3,0L3,0c0,1.7-1.3,3-3,3h0h0c1.7,0,3,1.3,3,3v0v0c0-1.7,1.3-3,3-3h0h0C4.3,3,3,1.7,3,0L3,0z"/></g>
<g transform="translate(672,792) scale(4.12)"><path d="M3,0L3,0c0,1.7-1.3,3-3,3h0h0c1.7,0,3,1.3,3,3v0v0c0-1.7,1.3-3,3-3h0h0C4.3,3,3,1.7,3,0L3,0z"/></g>
<g transform="translate(720,792) scale(4.12)"><path d="M3,0L3,0c0,1.7-1.3,3-3,3h0h0c1.7,0,3,1.3,3,3v0v0c0-1.7,1.3-3,3-3h0h0C4.3,3,3,1.7,3,0L3,0z"/></g>
<g transform="translate(744,792) scale(4.12)"><path d="M3,0L3,0c0,1.7-1.3,3-3,3h0h0c1.7,0,3,1.3,3,3v0v0c0-1.7,1.3-3,3-3h0h0C4.3,3,3,1.7,3,0L3,0z"/></g>
<g transform="translate(768,792) scale(4.12)"><path d="M3,0L3,0c0,1.7-1.3,3-3,3h0h0c1.7,0,3,1.3,3,3v0v0c0-1.7,1.3-3,3-3h0h0C4.3,3,3,1.7,3,0L3,0z"/></g>
<g transform="translate(288,816) scale(4.12)"><path d="M3,0L3,0c0,1.7-1.3,3-3,3h0h0c1.7,0,3,1.3,3,3v0v0c0-1.7,1.3-3,3-3h0h0C4.3,3,3,1.7,3,0L3,0z"/></g>
<g transform="translate(384,816) scale(4.12)"><path d="M3,0L3,0c0,1.7-1.3,3-3,3h0h0c1.7,0,3,1.3,3,3v0v0c0-1.7,1.3-3,3-3h0h0C4.3,3,3,1.7,3,0L3,0z"/></g>
<g transform="translate(456,816) scale(4.12)"><path d="M3,0L3,0c0,1.7-1.3,3-3,3h0h0c1.7,0,3,1.3,3,3v0v0c0-1.7,1.3-3,3-3h0h0C4.3,3,3,1.7,3,0L3,0z"/></g>
<g transform="translate(504,816) scale(4.12)"><path d="M3,0L3,0c0,1.7-1.3,3-3,3h0h0c1.7,0,3,1.3,3,3v0v0c0-1.7,1.3-3,3-3h0h0C4.3,3,3,1.7,3,0L3,0z"/></g>
<g transform="translate(528,816) scale(4.12)"><path d="M3,0L3,0c0,1.7-1.3,3-3,3h0h0c1.7,0,3,1.3,3,3v0v0c0-1.7,1.3-3,3-3h0h0C4.3,3,3,1.7,3,0L3,0z"/></g>
<g transform="translate(576,816) scale(4.12)"><path d="M3,0L3,0c0,1.7-1.3,3-3,3h0h0c1.7,0,3,1.3,3,3v0v0c0-1.7,1.3-3,3-3h0h0C4.3,3,3,1.7,3,0L3,0z"/></g>
<g transform="translate(600,816) scale(4.12)"><path d="M3,0L3,0c0,1.7-1.3,3-3,3h0h0c1.7,0,3,1.3,3,3v0v0c0-1.7,1.3-3,3-3h0h0C4.3,3,3,1.7,3,0L3,0z"/></g>
<g transform="translate(624,816) scale(4.12)"><path d="M3,0L3,0c0,1.7-1.3,3-3,3h0h0c1.7,0,3,1.3,3,3v0v0c0-1.7,1.3-3,3-3h0h0C4.3,3,3,1.7,3,0L3,0z"/></g>
<g transform="translate(648,816) scale(4.12)"><path d="M3,0L3,0c0,1.7-1.3,3-3,3h0h0c1.7,0,3,1.3,3,3v0v0c0-1.7,1.3-3,3-3h0h0C4.3,3,3,1.7,3,0L3,0z"/></g>
<g transform="translate(696,816) scale(4.12)"><path d="M3,0L3,0c0,1.7-1.3,3-3,3h0h0c1.7,0,3,1.3,3,3v0v0c0-1.7,1.3-3,3-3h0h0C4.3,3,3,1.7,3,0L3,0z"/></g>
<g transform="translate(792,816) scale(4.12)"><path d="M3,0L3,0c0,1.7-1.3,3-3,3h0h0c1.7,0,3,1.3,3,3v0v0c0-1.7,1.3-3,3-3h0h0C4.3,3,3,1.7,3,0L3,0z"/></g>
</g></g></mask></defs><rect width="888" height="888" fill="#ffffff" x="0" y="0"/><rect x="0" y="0" width="888" height="888" mask="url(#qrmask)" fill="url(#pattern-mask)"/><g><g transform="translate(48,48)" fill="#ffa100"><g transform="scale(12)"><path d="M13.8,1.1c-3.5,3.9-3.8-1.9-12.8-0.9c3.9,3.5-1.9,3.8-0.9,12.8c3.5-3.9,3.8,1.9,12.8,0.9C9.1,10.4,14.9,10.1,13.8,1.1z      M9.4,13.2c-6.5-1.6-5.2-5.6-8.6-3.8c1.6-6.5,5.6-5.2,3.8-8.6c6.5,1.6,5.2,5.6,8.6,3.8C11.7,11.1,7.6,9.8,9.4,13.2z"/><path d="M5.8,4.6"/></g></g>
<g transform="translate(672,48)" fill="#ffa100"><g transform="scale(12)"><path d="M13.8,1.1c-3.5,3.9-3.8-1.9-12.8-0.9c3.9,3.5-1.9,3.8-0.9,12.8c3.5-3.9,3.8,1.9,12.8,0.9C9.1,10.4,14.9,10.1,13.8,1.1z      M9.4,13.2c-6.5-1.6-5.2-5.6-8.6-3.8c1.6-6.5,5.6-5.2,3.8-8.6c6.5,1.6,5.2,5.6,8.6,3.8C11.7,11.1,7.6,9.8,9.4,13.2z"/><path d="M5.8,4.6"/></g></g>
<g transform="translate(48,672)" fill="#ffa100"><g transform="scale(12)"><path d="M13.8,1.1c-3.5,3.9-3.8-1.9-12.8-0.9c3.9,3.5-1.9,3.8-0.9,12.8c3.5-3.9,3.8,1.9,12.8,0.9C9.1,10.4,14.9,10.1,13.8,1.1z      M9.4,13.2c-6.5-1.6-5.2-5.6-8.6-3.8c1.6-6.5,5.6-5.2,3.8-8.6c6.5,1.6,5.2,5.6,8.6,3.8C11.7,11.1,7.6,9.8,9.4,13.2z"/><path d="M5.8,4.6"/></g></g>
<g transform="translate(96,96)" fill="#000000"><g transform="scale(12)"><path d="M3.2,0.3l0.6,1.3C4,1.8,4.1,1.9,4.3,1.9l1.4,0.2c0.2,0,0.3,0.3,0.2,0.5l-1,1C4.7,3.7,4.7,3.9,4.7,4.1L5,5.5 c0,0.2-0.2,0.4-0.4,0.3L3.3,5.2c-0.2-0.1-0.4-0.1-0.6,0L1.4,5.8C1.2,5.9,1,5.8,1,5.5l0.2-1.4c0-0.2,0-0.4-0.2-0.5l-1-1 C-0.1,2.4,0,2.2,0.2,2.1l1.4-0.2c0.2,0,0.4-0.2,0.5-0.3l0.6-1.3C2.9,0.1,3.1,0.1,3.2,0.3z"/></g></g>
<g transform="translate(720,96)" fill="#000000"><g transform="scale(12)"><path d="M3.2,0.3l0.6,1.3C4,1.8,4.1,1.9,4.3,1.9l1.4,0.2c0.2,0,0.3,0.3,0.2,0.5l-1,1C4.7,3.7,4.7,3.9,4.7,4.1L5,5.5 c0,0.2-0.2,0.4-0.4,0.3L3.3,5.2c-0.2-0.1-0.4-0.1-0.6,0L1.4,5.8C1.2,5.9,1,5.8,1,5.5l0.2-1.4c0-0.2,0-0.4-0.2-0.5l-1-1 C-0.1,2.4,0,2.2,0.2,2.1l1.4-0.2c0.2,0,0.4-0.2,0.5-0.3l0.6-1.3C2.9,0.1,3.1,0.1,3.2,0.3z"/></g></g>
<g transform="translate(96,720)" fill="#000000"><g transform="scale(12)"><path d="M3.2,0.3l0.6,1.3C4,1.8,4.1,1.9,4.3,1.9l1.4,0.2c0.2,0,0.3,0.3,0.2,0.5l-1,1C4.7,3.7,4.7,3.9,4.7,4.1L5,5.5 c0,0.2-0.2,0.4-0.4,0.3L3.3,5.2c-0.2-0.1-0.4-0.1-0.6,0L1.4,5.8C1.2,5.9,1,5.8,1,5.5l0.2-1.4c0-0.2,0-0.4-0.2-0.5l-1-1 C-0.1,2.4,0,2.2,0.2,2.1l1.4-0.2c0.2,0,0.4-0.2,0.5-0.3l0.6-1.3C2.9,0.1,3.1,0.1,3.2,0.3z"/></g></g></g></svg>
